<svg xmlns="http://www.w3.org/2000/svg" xml:space="preserve" width="432" height="215.373"><path d="M306.91.121c2.207 106.418 2.207 214.059 0 323.027 54.844-1.449 117.57-1.449 175.238 0 66.165 0 100.571-40.257 100.571-80.73 0-29.898-14.059-57.238-35.676-69.629 37.105-10.988 58.48-43.238 58.48-81.437 0-61.68-44.914-91.23-100.937-91.23zM486.152 139.98c38.743-1.152 58.071-17.539 58.071-42.832 0-26.328-17.16-40.289-56.555-42.187-36.336-1.7-77.57-1.7-116.805 0-1.468 28.867-1.468 55.469 0 85.019 37.684 1.02 81.164 1.02 115.289 0m-4.902 130.2c27.992-1.758 40.781-15.981 40.781-36.961 0-18.449-10.133-35.457-36.246-36.891-26.359-1.387-87.781-1.558-115.25 0-1.019 24.32-1.019 48.934 0 73.852 31.024 1.05 84.719 1.601 110.715 0M2121.2 56.488c-.74-18.558-.74-37.328 0-56.367a7602.108 7602.108 0 0 1-266.62 0c1.85 107.688 1.8 215.328-.04 323.027 20.56-.75 41.04-.75 61.54 0a6772.79 6772.79 0 0 1 0-266.66 5359.17 5359.17 0 0 1 205.12 0M1133.77 323.262c60.48-72.133 123.05-144.332 187.66-216.461 1.55 72.09 1.51 144.179-.04 216.25 18.11-.801 36.5-.801 55.09 0-1.59-106.41-1.59-214.039 0-322.973-15.69.703-31.34.703-47-.078-63.02 75.45-128.73 151.781-197.14 228.949-1.39-76.308-1.43-152.558-.04-228.87-17.7.702-36.05.702-55.05 0 1.39 107.62 1.39 215.292 0 322.933a688.19 688.19 0 0 1 56.52.25M976.68 266.781c-70.125 1.598-140.992 1.598-212.754 0a557.464 557.464 0 0 1 0-73.07c47.976-1.383 96.527-1.383 145.605 0-.73-18.711-.73-37.52 0-56.27-47.933 1.469-96.484 1.469-145.605 0a763.74 763.74 0 0 1 0-80.921 5504.52 5504.52 0 0 1 216.39 0c-.699-18.801-.699-37.59 0-56.34a8361.016 8361.016 0 0 1-277.855 0 10373.394 10373.394 0 0 1 0 322.968c92.48-1.527 183.863-1.527 274.219 0a680.934 680.934 0 0 1 0-56.367M2721.98.262c1.52 45.68 1.52 91.988 0 138.816-47.44 61.293-96.93 122.641-148.46 183.973 25.25-.762 50.5-.762 75.77 0 32.48-41.723 66.93-83.403 103.39-125.082 36.28 41.679 70.78 83.359 103.39 125.082 25.26-.762 50.51-.762 75.73 0-51.29-61.332-100.82-122.68-148.47-183.973-1.51-46.27-1.51-92.566 0-138.816-20.44.68-40.87.68-61.35 0M2482.63 266.781c-70.09 1.598-141 1.598-212.72 0a574.691 574.691 0 0 1 0-73.07c47.98-1.383 96.54-1.383 145.62 0-.78-18.711-.78-37.52 0-56.27-47.94 1.469-96.54 1.469-145.62 0a769.111 769.111 0 0 1 0-80.921 5505.029 5505.029 0 0 1 216.4 0c-.74-18.801-.74-37.59 0-56.34-92.61 1.539-185.29 1.539-277.9 0 1.68 107.629 1.68 215.308 0 322.968 92.48-1.527 183.9-1.527 274.22 0a715.872 715.872 0 0 1 0-56.367M1589.64.18c1.56 87.808 1.56 176.699 0 266.601-38.29 1.68-77.03 1.68-116.22 0 .69 18.59.69 37.399 0 56.367a8950.945 8950.945 0 0 1 293.95 0 725.646 725.646 0 0 1 0-56.367 1521.905 1521.905 0 0 1-116.27 0c-1.51-88.89-1.51-177.77 0-266.601-20.22.718-40.74.718-61.46 0M0 1521.52s24.027 28.16 30.934 36.01c6.949 7.84 12.015 13.89 16.636 18.47 4.618 4.62 9.93 5.76 14.301 5.31 4.414-.45 51.492-5.52 64.16-6.95 12.707-1.34 68.371-3.92 90.485-3.92 22.183 0 80.504-.12 92.804-.12 12.301 0 104.95 5.23 125.543 6.78 20.641 1.55 138.95 3.07 167.555 3.52 28.645.45 161.137-4.62 193.914-6.46 32.773-1.84 122.805-6.46 152.805-5.56 29.996.94 171.723 6.95 199.873 6.95 28.16 0 116.8-5.56 136.62-8.75 19.86-3.27 42.95-10.62 42.95-10.62s37.85 15.24 57.26 21.66c19.37 6.5 70.17 20.8 108.95 26.77 38.74 6.05 80.3 10.66 121.38 10.66 41.11 0 99.71-4.61 139.88-13.44 40.13-8.75 86.31-22.56 103.88-29.51 17.54-6.95 54.93-23.99 54.93-23.99s27.26 8.3 50.31 13.37c23.09 5.1 58.6 10.62 78.91 11.97 20.35 1.43 36.5 3.27 61.43 2.78 24.93-.45 84.51-6.46 101.1-8.3 16.59-1.83 55.87-6.45 96.45-6.01 27.25.29 115 4.18 140.38 5.56 25.38 1.39 177.68 8.3 209.07 8.75 31.43.49 168.98-7.85 196.7-9.2 27.7-1.43 85.82-4.17 103.84-3.72 18.01.49 78.5 3.27 108.95 6.46 30.44 3.23 95.79 8.62 106.87 9.28 12.25.65 17.53.65 19.62-.74 2.08-1.39 21.25-19.82 29.09-28.6 7.85-8.79 15.69-19.62 18.68-23.09 3.02-3.48 4.37-4.87 3.47-6.67-.9-1.88-6.46-11.56-8.54-14.1-2.09-2.57-3.92-3.71-6.46-5.06-2.53-1.43-29.54-15-38.33-18.72-8.74-3.68-31.84-13.36-31.84-13.36s6.7-15.7 9.2-22.64c2.57-6.91 6.25-21.01 6.25-25.42 0-4.37.45-14.27-.69-14.96-1.15-.74-14.76-8.58-20.07-10.87-5.31-2.29-25.38-10.63-34.16-12.95-8.75-2.25-25.14-6.67-25.14-6.67s1.14-12.42.69-20.06c-.48-7.61-.48-16.43-2.32-24.28-1.6-6.82-6.91-15.89-10.14-20.06-3.27-4.17-10.42-8.09-15.48-10.59-4.25-2.12-21.5-7.39-30-9.03-8.54-1.6-20.32-3.47-25.39-3.92-5.1-.45-9.27-.45-9.27-.45s-.45-15.04-1.15-21.7c-.65-6.7-2.97-18.47-4.57-23.54-1.68-5.11-6.26-14.1-11.12-18.23-4.82-4.17-8.29-6.7-16.59-8.54-8.29-1.88-19.16-4.38-29.58-5.56-10.34-1.14-30.21-3.43-36.9-3.92-6.71-.45-13.66-.7-13.66-.7s-5.07-18.67-7.11-24.47c-2.09-5.73-8.34-18.23-12.71-24.44-4.37-6.25-12.01-15-15.94-18.47-3.92-3.48-10.14-7.85-13.11-8.75-3.03-.94-17.53-1.63-24.49-1.63-6.94 0-27.91 0-38.33.69-10.38.69-21.7 1.84-28.81 2.53-6.05.58-10.86 1.84-10.86 1.84s-2.34-14.3-3.03-18.02c-.7-3.68-3.23-12.67-5.97-19.37-2.78-6.66-6.25-11.77-9.28-14.75-2.78-2.78-5.64-6.05-14.26-7.85-8.78-1.88-17.12-2.33-22.4-2.53-5.31-.25-39.02-1.15-48.01-1.15-9.04 0-26.32.21-32.57.45-6.21.21-15.9 0-15.9 0s-2.54-10.62-4.41-16.63c-1.8-6.01-5.77-15.94-8.05-20.31-2.3-4.41-5.44-10.02-9.24-13.61-4.17-3.92-5.8-6.5-13.41-7.4-7.63-.9-17.08-1.59-26.28-1.39-9.27.24-29.58 1.39-39.02 2.78-9.48 1.39-28.86 5.11-34.41 6.7-5.56 1.6-11.32 4.13-11.32 4.13s-3.43-10.62-6.21-15.45c-2.79-4.86-8.74-14.385-12.71-17.529-4.82-3.926-10.14-10.625-19.17-11.766-8.99-1.187-17.98.45-25.58 1.59-7.64 1.145-24.23 4.824-31.39 6.699-7.19 1.84-25.22 7.153-29.3 8.301-4.21 1.145-9.28 3.266-9.28 3.266s-4.9-9.766-8.3-14.094c-3.22-4.172-8.98-10.875-13.36-14.309-4.41-3.472-12.25-8.578-15.93-9.027-3.69-.457-9.69 0-17.58 1.141-7.84 1.187-17.29 3.965-25.33 6.5-8.1 2.535-14.8 5.558-14.8 5.558s-8.75-25.422-11.07-31.183c-2.34-5.762-13.62-29.34-17.83-37.188-3.46-6.66-22.18-37.109-27.91-45.445-6.9-10.176-34.57-45.031-41.26-51.699-6.71-6.7-16.2-16.875-22.2-23.086-5.97-6.211-31.39-28.848-44.99-39.727-13.65-10.82-38.34-28.847-57.46-40.625-19.21-11.758-54.03-30.449-69.27-37.383-15.21-6.914-32.77-14.062-32.77-14.062s-6.96-13.164-10.59-21.504c-3.68-8.281-10.42-20.957-12.06-23.238-1.59-2.352-4.62-3.032-8.05-1.879-3.47 1.14-20.11 7.39-26.32 9.668-6.21 2.344-20.06 8.105-20.06 8.105s-9.24-13.613-12.51-18.695c-3.23-5.09-12.22-18.711-13.81-20.289-1.63-1.641-5.11-.988-7.15-.25-2.05.699-20.07 10.578-23.79 12.711-3.67 2.027-19.16 11.078-19.16 11.078s-8.75-10.629-13.37-16.879c-3.72-5.039-16.43-19.629-17.57-20.762-1.15-1.148-2.99-.937-5.72.203-2.78 1.149-8.1 5.598-14.1 9.981-6.01 4.367-16.18 12.457-19.42 14.488-3.22 2.09-6.21 4.86-6.21 4.86s-11.52-11.309-15.69-15.231c-4.16-3.93-14.3-13.848-15.69-15.238a287.3 287.3 0 0 0-3.92-3.692s-2.09-1.578-4.87-.23c-2.74 1.383-14.5 12.461-19.61 17.32-4.17 3.973-16.19 15.903-16.19 15.903s-14.51-10.59-19.37-14.063c-4.86-3.437-17.78-13.621-20.06-14.75-2.29-1.148-5.56-.699-7.4 1.801-1.84 2.582-15.69 18.512-18.23 21.738-2.53 3.223-11.32 13.613-11.32 13.613s-17.08-9.242-23.98-12.722c-6.95-3.469-17.33-10.328-19.17-11.071-1.88-.699-6.01-.699-7.4 1.641-1.35 2.32-10.34 15.199-13.85 20.289-3.93 5.781-12.02 18.246-12.02 18.246s-15.69-5.761-21.21-8.105c-5.52-2.278-22.15-8.77-25.13-9.43-3.03-.711-7.4.07-8.58 2.281-1.6 3.032-12.92 24.727-15.25 30-2.29 5.352-5.96 13.203-5.96 13.203s-18.6 7.364-30.69 12.911c-13.17 6.015-41.32 19.824-53.09 26.328-11.77 6.406-31.39 18.183-43.16 26.308-11.77 8.086-38.78 27.91-49.41 37.149-10.62 9.199-46.62 44.996-55.16 54.683-8.55 9.684-22.16 26.114-33.72 41.762-11.53 15.738-19.86 30.246-27.91 45.488-8.09 15.243-14.31 27.911-21.7 46.18-7.4 18.227-13.61 35.106-15.45 41.277-1.88 6.25-2.33 8.825-2.33 8.825s-21.006-6.95-35.756-10.422c-14.797-3.43-31.426-8.293-46.426-7.395-14.957.942-17.738 3.27-21.457 6.254-3.676 2.984-8.297 8.336-13.403 15.488-5.07 7.111-9.894 16.591-9.894 16.591s-23.09-5.76-32.078-7.84c-8.988-2.09-30.238-6.26-42.949-7.852-12.672-1.637-27.465-3.227-34.86-2.328-7.359.98-12.59 3.84-19.172 9.48-6.902 6-9.191 9.68-12.664 14.55-2.699 3.75-9.441 16.88-10.875 20.06-1.347 3.23-2.285 7.4-2.285 7.4s-26.523-.45-33.473-.45c-6.945 0-43.394.2-50.793.45-7.359.2-27.218 1.63-35.312 3.23-8.047 1.64-13.117 3.02-20.758 13.2-7.601 10.09-9.687 14.95-12.672 23.01-3.019 8.09-5.351 17.12-5.351 17.12s-23.293.24-35.762 1.59c-12.461 1.43-38.328 4.38-52.387 6.71-14.101 2.29-35.515 6-41.316 8.09-5.766 2.04-8.992 6.95-14.059 12.46-5.109 5.56-10.175 12.92-14.797 19.82-4.617 6.95-14.093 21.05-15 23.09-.898 2.09-2.285 4.38-2.285 4.38s-24.031 2.33-34.613 3.71c-10.668 1.35-26.113 3.93-33.266 5.28-7.156 1.43-25.832 4.9-29.996 6.94-4.133 2.09-7.601 3.72-11.324 11.08-3.676 7.4-6.172 22.07-9.23 34.65a656.764 656.764 0 0 0-5.317 23.75s-19.375 5.07-34.859 9.23c-15.446 4.17-19.821 5.56-30.485 8.75-10.586 3.27-20.761 7.19-26.73 11.12-6.004 3.92-5.805 11.31-6.453 15.44-.699 4.17-2.328 21.74-2.778 26.81-.496 5.07-.25 16.14-.25 16.14s-38.535 17.78-48.468 22.15c-9.93 4.42-33.473 15.69-38.336 17.99-4.817 2.32-4.125 7.39-3.43 11.31.652 3.93 3.926 19.62 5.559 27.26 1.593 7.61 4.129 20.07 4.617 21.7.45 1.6.652 3.19.652 3.19s-37.187 18.72-46.379 23.58c-9.238 4.86-35.312 17.98-38.785 20.11-3.473 2.05-4.82 6.21-6.457 11.97-1.637 5.76-2.328 8.99-2.328 8.99" style="fill:#231f20;fill-opacity:1;fill-rule:evenodd;stroke:none" transform="matrix(.13333 0 0 -.13333 0 215.373)"/><path d="M1226.54 1289.11c3.72 42.62 57.29 90.32 49.53 133.68-6.13 34.33-48.55 63.42-91.17 70.09-24.52 3.83-105.11 9.85-122.69 10.42-21.66.69-80.058 1.83-98.323 2.08-18.227.2-66.489.49-80.75.94-14.348.45-32.082.69-54.969 4.62-23.129 3.96-39.52 8.78-62.324 15.69-22.84 6.91-41.031 12.47-59.051 16.39-18.023 3.92-40.863 7.6-56.559 8.99-15.738 1.39-46.629 3.68-69.925 4.13-23.336.45-80.793 0-99.309-.21-18.426-.24-75.684-2.29-90.684-2.29-14.996 0-31.179.21-38.289-.24-7.156-.45-5.558-3.93-8.785-4.38-3.269-.48-20.762 0-30.691 0-9.934 0-17.332.45-20.805.7-3.476.21-8.539.21-8.539.21s-.652-3.23 2.816-4.13c3.434-.94 12.223-1.64 15.207-1.88 2.985-.25 26.524-1.84 34.817-2.29 8.379-.45 22.641-.45 31.672-1.18 8.992-.7 25.133-.7 35.758-.9 10.625-.25 53.535 0 69.226-.45 15.695-.49 45.285-.49 59.793-.94 14.547-.45 48.957-1.84 75.973-5.11 27.011-3.19 48.914-6.42 76.133-12.92 25.996-6.17 56.804-15.9 71.804-20.51 15-4.62 35.801-10.18 46.586-12.46 10.871-2.34 20.598-3.03 23.336-5.36 2.777-2.25 2.777-4.82 1.188-8.3-1.637-3.47-3.024-4.61-4.172-7.84-1.188-3.23-2.328-5.77-2.328-5.77h-9.688s1.84 1.84 2.086 3.93c.203 2.09-5.516 5.56-11.562 6.7-5.969 1.19-33.434 3.68-40.582 4.62-7.192.94-34.411 3.47-49.204 3.27-14.757-.29-72.457.45-87.253 0-14.754-.53-68.739.65-82.387.2-13.61-.49-61.137 0-74.09.25-12.914.2-42.953.2-54.93.2-12.011 0-52.636 0-66.937.25-14.305.24-63.262 1.39-72.703 1.14-9.481-.24-36.246.7-49.61.9-13.402.25-59.343 1.63-71.808 1.63-12.422 0-28.114.95-33.016 2.29-4.824 1.44-31.145 15.04-41.73 20.31-10.665 5.36-30.727 15.7-36.29 18.48-5.515 2.78-10.828 6.49-12.464 7.19-1.59.65-8.989-6.5-11.032-9.24-2.086-2.78-5.804 0-5.804 0s25.382 28.16 30.488 34.13c5.07 6 11.32 14.09 14.059 14.99 2.777.95 13.851.95 20.554.25 6.707-.7 49.367-4.37 57.707-5.06 8.293-.7 44.543-1.85 54.227-2.34 9.726-.45 55.621-.69 70.863-1.14 15.246-.45 63.02-1.59 77.32-.9 14.309.69 53.985 4.38 66.247 5.07 12.261.69 50.8 3.47 68.781 3.92 18.019.45 54.926.2 66.691.9 11.774.74 58.406 1.19 74.586 1.19 16.145 0 61.625-1.89 77.074-2.34 15.489-.45 81.735-3.91 99.02-4.81 17.289-.95 103.187-3.93 122.109-4.38 18.926-.45 47.078-1.43 62.078-.45 15.039.9 87.014 4.13 108.954 4.83 21.9.69 79.4 1.59 102.74.9 23.29-.66 79.36-6.26 98.32-8.55 18.92-2.29 37.6-7.15 42.91-7.35 5.32-.25 13.86-.7 16.84-3.48 3.03-2.78 5.8-8.99 11.57-12.46 5.72-3.48 13.81-4.82 16.59-8.54 2.78-3.68 3.03-11.32 4.62-14.55 1.63-3.23 8.33-13.82 9.24-21.01.93-7.15 0-19.61-4.58-27.46-4.66-7.85-12.3-17.33-20.81-26.07-8.54-8.79-21.45-18.27-32.77-27.96-11.32-9.68-30.49-24.68-40.38-38.29-9.97-13.61-16.14-22.89-18.27-36.45-2.04-13.65-.89-21.74-1.59-24.03-.74-2.33-2.78-8.05-6-11.53-3.24-3.47-17.29-19.86-22.4-26.56-5.07-6.7-13.61-19.17-15.69-22.4-2.09-3.19-3.93-6.65-3.93-6.65l-3.22 5.51s7.07 8.5 7.76 10.58c2.66 3.15 1.39 13 2.82 29.59" style="fill:#fff;fill-opacity:1;fill-rule:evenodd;stroke:none" transform="matrix(.13333 0 0 -.13333 0 215.373)"/><path d="m106.211 1449.06 1.594 8.55s23.539.2 30.691-.25c7.152-.45 50.102-1.84 65.102-1.84 14.996 0 61.629-1.39 72.906-.94 11.316.49 74.336-.9 87.988-.9 13.61 0 79.61-.24 93.219-.48 13.644-.21 89.086-.66 100.859-.66 11.766 0 73.887 0 88.434-.24 14.512-.21 76.828.45 90.93.45 14.058 0 50.101-.66 57.949-.45 7.847.24 14.058.9 15.695 1.38 1.59.45 6.66 2.54 9.684 1.15 3.023-1.39 4.375-4.86 5.758-6.67 1.394-1.87 4.171-3.96 5.761-5.1 1.598-1.15 4.864-2.78 6.949-5.56 2.047-2.78 2.047-2.78 5.313-5.27 3.234-2.57 3.926-3.72 2.777-5.11-1.14-1.39-6.043-7.6-8.09-10.83-2.085-3.23-2.777-6.7-3.917-7.6-1.188-.98-8.094-1.63-8.094-1.63s4.168 2.98 3.472 5.76c-.73 2.73-5.554 8.99-15.449 9.68-9.972.7-34.652-1.59-45.726-2.74-11.075-1.18-84.512-7.6-97.426-8.78-12.918-1.14-114.676-8.34-132.004-9.69-17.324-1.39-97.836-6.25-113.324-7.4-15.446-1.14-75.723-4.16-94.403-5.26-18.718-1.19-61.875-3.03-78.257-3.73-16.348-.74-48.918-1.38-54.93-.94-6.004.45-14.098 3.93-18.227 5.77-4.164 1.83-30.238 13.61-37.597 16.87-7.395 3.24-20.352 8.51-22.637 11.53-2.328 3.02-1.148 7.85-1.148 11.53 0 3.72-.282 8.54-4.411 12-4.168 3.48-9.441 7.4-9.441 7.4M187.211 1349.35v6.46s10.871 0 16.594.94c5.8.9 28.644.9 43.847 1.59 15.243.74 74.789 3.27 93.504 4.37 19.164 1.19 104.125 5.81 120.028 6.95 15.933 1.15 128.074 8.79 143.765 10.18 15.696 1.35 108.305 8.74 122.848 9.89 14.508 1.18 63.019 6.25 80.305 7.64 17.328 1.39 19.863 3.68 22.64 3.92 2.778.21 4.824 1.84 7.602-1.39 2.742-3.22 8.543-9.72 12.011-12.01 3.477-2.33 14.309-9.24 14.551-12.67.207-3.47-3.019-7.84-4.656-11.08-1.598-3.26-1.598-9.72-1.598-9.72l-11.074-2.04s.899 2.49 1.188 4.12c.16 1.6-1.676 6.01-6.254 7.85-4.617 1.84-12.258 3.22-19.86 1.6-7.601-1.6-42.257-7.61-56.359-9.9-14.059-2.33-95.75-15.94-115.609-19.16-19.864-3.23-98.325-15.25-117.047-17.78-18.676-2.54-91.133-12.01-116.508-14.51-25.418-2.57-55.906-5.56-72.949-6.5-17.078-.9-34.41-2.53-46.875-1.14-12.461 1.39-39.926 9.93-51.946 12.92-11.968 3.02-29.992 8.29-33.015 11.31-2.985 3.02-4.617 6.21-5.52 9.89-.894 3.72-6.703 11.57-9.722 12.96-2.946 1.39-9.891 5.31-9.891 5.31M289.457 1267.86s4.621-.7 9.688 0c5.109.69 9.476 3.03 15.488 3.23 5.969.24 23.988.94 33.922 1.39 9.925.45 38.984 3.23 49.16 4.17 10.137.94 58.398 5.76 74.094 7.84 15.691 2.09 101.754 14.31 116.101 16.35 14.309 2.12 86.313 12.96 105.93 16.43 19.613 3.43 85.406 15 102.25 18.23 16.836 3.23 37.148 6.45 44.789 8.05 7.598 1.67 12.711 5.1 16.875 3.92 4.133-1.1 8.5-4.37 13.812-6.87 5.313-2.57 13.407-5.1 17.782-6.7 4.375-1.63 8.539-3.92 8.988-5.55.449-1.64 0-8.1-1.836-11.28-1.844-3.27-2.984-5.81-3.684-9.49-.73-3.72-.937-6.74-.937-6.74l-10.379-3.68s1.598 4.66 0 6.95c-1.637 2.33-7.398 6.46-10.383 6.01-3.019-.45-7.64-.69-12.465-2.33-4.82-1.6-67.183-20.31-77.113-23.09l-74.336-20.51c-9.195-2.58-67.844-17.3-84.433-20.76-16.633-3.48-78.012-15.94-93.258-18.73-15.242-2.77-72.949-10.17-87.699-11.07-14.797-.94-17.333-1.39-29.098-.69-11.774.69-33.922 3.47-48.02 5.51-14.058 2.09-29.3 5.11-34.617 6.25-5.312 1.15-10.375 2.09-12.707 8.3-2.289 6.25-2.043 10.88-5.965 15.24-3.926 4.38-8.789 8.79-12.015 10.18-3.231 1.39-8.336 1.35-9.036 2.98-1.14 2.79-.898 6.46-.898 6.46M413.652 1183.63s42.012 4.38 51.453 5.76c9.481 1.4 74.094 10.63 89.583 13.86 15.445 3.23 82.136 17.74 94.156 20.52 12.015 2.77 84.965 21.74 99.472 25.66 14.543 3.93 63.465 17.73 76.625 21.9 13.157 4.13 52.188 15.9 56.559 17.78 4.375 1.84 8.742 5.07 13.156 4.62 4.414-.45 17.082-4.37 21.699-5.76 4.622-1.39 16.594-3.48 18.723-5.56 2.039-2.04 2.942-3.92 2.488-7.15-.449-3.27-.242-20.31 0-22.15.247-1.88 4.661-5.56 4.661-5.56l-11.075-4.37c-2.328-.94-7.398-2.78-7.398-2.78s1.148 4.86.449 6.25c-.691 1.35-6.984 5.11-8.781 5.52-2.086.49-3.93 0-8.789-1.6-4.82-1.63-17.285-7.19-23.496-9.97-6.258-2.73-43.157-17.28-54.235-21.66-11.113-4.37-55.867-21.45-70.211-26.56-14.3-5.07-79.359-27.46-91.378-31.14-12.008-3.72-54.719-15.69-64.852-18.22-10.176-2.54-15.039-4.66-23.336-5.11-8.297-.45-40.625 2.32-54.027 4.16-13.364 1.84-51 7.4-56.071 9.04-5.066 1.59-8.297 3.67-11.316 7.1-2.984 3.48-5.52 6.02-10.586 8.79-5.109 2.74-11.074 5.77-15.246 7.4-4.125 1.59-6.004 2.29-8.781 3.43-2.743 1.19-5.762 1.44-7.399 2.58-1.597 1.1-2.047 3.22-2.047 3.22M587.461 1110.93s13.57 3.23 17.535 5.07c3.883 1.84 25.824 8.5 32.774 10.38 6.949 1.84 31.628 8.54 41.964 12.01 10.426 3.48 58.856 20.07 68.375 23.3 9.442 3.23 67.145 24.93 78.461 29.3 11.325 4.37 75.485 30.69 84.68 34.41 9.277 3.68 18.473 7.6 21.699 9.73 3.274 2.04 13.61 7.11 18.516 8.3 4.82 1.14 14.508 2.73 18.879 2.48 4.414-.2 7.644.25 9.48-1.79 1.84-2.13 2.578-4.87 2.289-8.34-.242-3.43.938-12.22 4.864-15.2 3.921-3.03 9.933-5.8 16.633-7.4 6.7-1.59 13.12-2.57 15.45-2.78 2.29-.24 3.92 0 3.92 0s-13.12-7.81-16.39-9.48l-17.078-8.5s-1.149 3.44-2.739 4.13c-1.636.69-7.847.69-12.957.24-5.066-.45-10.132-2.33-14.753-5.06-4.661-2.78-48.958-26.32-57.7-30.94-8.789-4.62-76.672-39.97-85.867-44.14-9.23-4.12-52.84-25.58-60.031-28.81-7.149-3.27-11.32-6.05-18.024-6.7-6.699-.69-21.906-.94-35.511-1.14-13.61-.25-40.375.45-48.711.89-8.297.45-20.313.74-26.77 3.23-6.461 2.58-7.394 6.05-11.32 10.63-3.922 4.62-11.524 8.99-14.996 10.13-3.477 1.19-8.828 1.56-11.078.99-.942-.25-1.594 5.06-1.594 5.06M745.332 1055.07s52.844 26.56 60.891 30c8.132 3.47 87.047 43.84 97.179 49.4 10.176 5.56 67.883 37.15 80.348 44.06 12.461 6.95 29.75 16.18 32.53 18.02 2.78 1.84 4.86 4.62 8.33 5.8 3.44 1.15 5.77 1.6 5.77 1.6s4.86-6.5 7.6-9.93c2.78-3.44 9.03-9.69 15.94-10.63 6.91-.94 10.38-1.15 14.75-.66 4.37.45 12.01 2.05 12.01 2.05s-19.12-18.48-22.59-21.21c-3.48-2.78-45.49-37.19-53.78-44.59-8.302-7.39-38.787-31.14-45.736-36.69-6.902-5.52-29.058-21.95-33.879-24.44-4.906-2.58-17.121-7.15-24.761-9.28-7.606-2.05-42.707-9.44-55.379-11.98-12.668-2.53-39.926-7.19-45.2-7.39-5.351-.25-12.953-.25-17.574 4.66-4.613 4.82-7.148 11.97-13.16 14.96-6.004 3.02-10.129 4.94-14.301 4.41-8.336-1.14-8.988 1.84-8.988 1.84M898.785 1024.13s28.649 21.01 34.903 26.12c6.171 5.06 32.039 25.33 38.988 30.89 6.941 5.56 37.344 30.24 46.624 37.84 9.24 7.65 36.91 31.18 44.1 37.64 7.15 6.46 21.41 20.31 21.41 20.31s.98-5.55 3.48-7.6c2.57-2.13 6.05-6.5 12.01-8.99 6.01-2.57 14.3-3.02 20.35-2.78 5.97.21 11.73.9 14.06.9s6.01-1.14 6.25-5.07c.21-3.92.46-6.7.46-8.54 0-1.88.89-3.47.89-3.47l-42.46-47.08c-8.29-9.23-32.33-35.07-39.93-42.91-7.64-7.85-27.01-28.85-29.29-30.73-2.34-1.84-9.12-.37-13.21 2.08-5.27 3.23-10.13.69-16.59-.94-6.498-1.59-18.021-5.07-25.627-6.91-6.613-1.59-25.168-5.76-29.992-5.76-4.82 0-10.176.45-13.16 3.68-2.985 3.23-9.684 10.42-13.16 12.01-3.469 1.64-7.641 2.79-9.438 1.64-1.879-1.19-9.277-5.55-10.668-2.33M1038.47 1014.89s27.67 29.31 33.92 35.76c6.21 6.5 39.72 42.71 46.87 50.56 7.12 7.84 19.37 22.43 22.36 26.11 3.02 3.68 5.31 6.21 6.7 6.21 1.39 0 9.23.45 15.45 1.64 6.25 1.14 15.73 3.19 17.98 2.53 2.33-.7 2.33-2.53 2.58-4.41.24-1.8.45-21.91.69-28.37.2-6.49.2-20.55-1.15-25.66-1.38-5.07-16.63-34.82-20.1-42.91-3.44-8.09-13.41-26.08-14.76-29.55-1.38-3.43-2.28-4.37-3.47-5.51-1.15-1.19-3.76 2.94-7.4 7.35-5.06 6.25-10.34 5.36-15.69 3.93-5.27-1.35-35.06-9.2-40.37-10.34-5.32-1.19-14.56-3.722-19.42-2.781-4.82.901-7.15 4.121-9.44 8.051-2.33 3.92-5.23 6.5-8.54 6.5-3.68 0-6.21.89-6.21.89M1173.5 1035.66s6.9 16.38 8.49 19.41c1.68 3.02 3.93 7.84 3.93 7.84s1.88-8.54 3.47-12.46c1.64-3.93 5.64-8.17 6.95-12.67.98-3.39 7.84-21.05 8.99-23.78 1.14-2.78 3.23-7.16 2.53-9.73-.65-2.54-.45-4.622.49-6.907.9-2.289 1.76-4.457.21-5.066-2.33-.942-7.15-4.414-8.75-5.07-1.63-.692-5.56-.493-7.84 2.945-1.43 2.125-7.19 2.574-11.77 6.25-4.62 3.718-4.17 6.008-3.93 9.728.2 3.64 2.29 17.53 1.15 20.51-1.15 2.99-3.92 9-3.92 9M1033.15 979.344s8.55-10.832 14.11-10.625c5.51.242 7.35 1.629 9.64 2.328 2.33.691 7.4.898 9.48-.207 2.09-1.145 5.11-4.863 4.87-8.34-.25-3.469 1.88-10.785 4.37-16.387 3.02-6.699 14.79-30.687 21.7-42.011 6.9-11.317 26.97-39.926 35.51-50.305 8.59-10.422 36.98-41.359 44.34-47.774 7.36-6.496 44.79-37.644 58.2-46.628 13.36-8.985 45.2-29.59 64.61-39.239 19.37-9.726 43.4-20.996 49.61-23.34 6.21-2.324 10.38-2.968 11.52-4.804 1.19-1.895 3.23-3.731 3.23-3.731l-7.11-11.758-6.25-9.941-5.27 2.539s3.88 3.262 2.49 5.996c-1.39 2.793-3.02 5.567-7.4 7.891-4.37 2.285-23.29 10.351-31.63 14.277-8.29 3.906-44.75 23.77-57.66 32.07-12.96 8.34-44.79 30.235-59.83 42.5-14.96 12.227-47.53 44.059-58.36 56.071-10.83 12.015-33.47 41.769-40.41 52.437-6.91 10.582-26.53 46.137-30.7 55.621-4.16 9.438-6.45 15.692-10.38 19.368-3.92 3.679-5.06 4.371-6.7 4.617-1.59.203-5.72.695-5.72.695s-1.19 2.781-3.27 9.031c-1.63 4.864-2.99 9.649-2.99 9.649" style="fill:#fff;fill-opacity:1;fill-rule:evenodd;stroke:none" transform="matrix(.13333 0 0 -.13333 0 215.373)"/><path d="M1073.29 972.434s7.84.449 14.1 2.98c6.21 2.535 23.33 7.399 30.24 9.242 6.91 1.879 15 5.313 18.47 6.25 3.48.899 6.01 2.043 8.05 1.594 2.12-.449 3.27-1.594 5.52-4.824 2.33-3.266 5.15-10.094 8.09-12.465 3.48-2.777 8.13-6.941 14.55-6.25 6.5.695 12.95 1.387 18.27 3.676 5.27 2.332 15.24 8.785 17.53 9.972 2.29 1.149 5.56 3.676 6.7 2.496 1.15-1.148 2.78-3.234 4.37-3.683 1.64-.449 3.93-2.527 4.82-4.164.95-1.598 15.25-22.848 23.09-32.285 7.85-9.438 19.17-21.95 27.02-29.547 7.84-7.645 30.69-27.465 39.68-33.922 9.03-6.496 35.35-24.027 47.12-30.238 11.77-6.254 26.07-13.856 37.64-18.719 11.52-4.863 23.74-9.684 27.01-11.281 3.19-1.637 4.37-3.227 6.66-5.106 2.33-1.844 3.68-4.172 2.78-6.457-.94-2.289-13.16-21.461-18.47-31.187-5.31-9.688-15-25.137-18.92-32.071-3.92-6.914-14.3-23.789-17.33-29.316-3.02-5.547-10.87-18.223-11.32-19.609-.45-1.348-2.49-1.153-3.23 0-.69 1.152 2.78 4.863 2.78 9.433 0 4.629-2.78 11.133-5.31 13.652-2.54 2.54-10.14 6.211-14.3 8.106-4.17 1.836-24.44 11.523-34.62 16.836-10.13 5.312-30.69 17.07-44.09 25.859-13.37 8.75-31.39 20.762-42.95 30.203-11.53 9.481-27.92 23.539-38.05 33.469-10.18 9.934-27.02 28.61-37.64 42.504-10.63 13.813-24.24 32.531-31.63 45.691-7.36 13.161-15 29.547-17.49 32.325-2.58 2.738-6.26 7.109-11.57 8.746-5.31 1.59-8.34 2.777-10.63 3.019-2.32.207-6.45.207-6.94 2.047-.45 1.879 0 3.024 0 3.024M838.793 1479.31s43.156.2 55.863 0c12.672-.25 49.41-.25 53.332-.25 3.926 0 8.992-1.59 11.075-1.84l3.925-.49s1.84-4.12.45-5.51c-1.387-1.35-2.985-6.01-4.125-8.75-1.188-2.77-.25-5.81-1.879-6.25-1.598-.45-8.996-1.39-8.996-1.39s1.148 3.47-.899 4.87c-2.125 1.34-7.398 3.22-11.769 2.97-4.454-.2-26.356-2.33-33.266-2.97-6.945-.7-26.563-3.28-30.488-3.93-3.918-.7-8.293 0-11.278 1.14-3.023 1.19-13.648 5.56-16.633 7.85-2.984 2.33-4.414 3.22-5.515 3.47l-4.414.9 2.086 5.56c.691 1.84 2.531 4.62 2.531 4.62M851.504 1418.13s4.125 6.5 5.516 7.39c1.386.91 11.769 4.18 15.941 5.28 4.168 1.18 23.781 5.8 32.566 7.84 8.746 2.13 25.586 5.11 33.434 7.2 7.848 2.08 15.238 4.62 17.57 4.62 2.285 0 6.211-1.15 8.746-3.03 2.575-1.84 7.645-5.52 10.176-7.6 2.535-2.08 5.067-5.56 4.371-7.36-.652-1.88-1.836-3.26-3.226-5.11-1.348-1.84-.899-2.73-1.348-4.86-.531-2.04-.531-5.52-.531-5.52s-6.867-2.08-8.055-2.32c-1.141-.21-2.98-.7-2.98-.7s1.839 4.86.449 5.76c-1.391.94-6.457 4.66-11.528 5.11-5.105.45-19.613-3.92-24.519-5.56-4.82-1.59-23.047-6.45-29.949-8.54-6.949-2.04-13.164-5.07-18.723-4.62-5.519.49-10.383 2.78-15.242 5.07-4.82 2.33-5.969 3.27-7.602 4.17-1.593.94-5.066 2.78-5.066 2.78M870.18 1369.21s.449 3.93 2.574 5.52c2.043 1.63 7.601 2.98 10.344 4.41 2.777 1.4 11.316 4.17 20.304 7.36 9.036 3.23 25.871 8.34 33.024 10.38 7.191 2.12 22.637 6.94 26.562 8.54 3.922 1.64 8.785 4.62 12.711 4.37 3.918-.2 11.278-1.79 15.449-3.43 4.165-1.64 8.54-3.43 9.232-6.21.66-2.78-.939-6.95-2.532-9.24-1.637-2.33-2.086-4.41-2.535-6.25-.489-1.84-.489-5.27-.489-5.27s-2.535-2.13-5.554-2.82l-4.829-1.11s.454 3.23-1.589 5.52c-2.086 2.33-7.848 4.58-11.774 3.47-3.922-1.14-18.961-7.19-24.723-9.72-5.765-2.53-22.152-10.13-27.707-12.47-5.519-2.28-9.437-4.37-15.246-3.47-5.761.94-10.586 1.43-14.957 3.47-4.375 2.09-10.175 5.12-12.218 5.81-2.125.65-6.047 1.14-6.047 1.14M906.184 1329.29l19.617 9.44c6.699 3.22 32.082 14.75 39.926 18.47 7.847 3.68 20.558 9.93 23.336 11.07 2.777 1.14 5.761 3.23 8.988 3.48 3.229.24 10.629-1.39 14.749-2.34 4.17-.89 9.98-1.59 11.33-4.12 1.38-2.54 2.12-7.89 1.38-9.48-.69-1.64-2.28-6.91-2.04-8.99.21-2.09.9-7.16.9-7.16l-5.97-3.22c-3.02-1.64-6.94-3.48-6.94-3.48s-.9 3.48-3.48 5.77c-2.53 2.32-7.39 3.47-11.07 2.32-2.496-.77-17.535-9.48-23.094-12.91-5.515-3.48-19.617-12.26-21.902-13.65-2.328-1.39-4.375-4.82-11.324-3.92-6.942.89-10.176 1.63-13.649 3.23-3.468 1.59-10.586 6.7-12.464 8.09-1.797 1.35-8.747 3.22-8.747 5.06 0 1.85.454 2.34.454 2.34M942.434 1281.27s19.863 13.12 28.402 18.22c8.5 5.07 29.304 17.08 37.394 21.46 8.09 4.37 15.94 10.18 20.06 10.87 4.17.69 14.51.45 19.86.45 5.28 0 8.99 0 9.45-2.78.45-2.74-.46-5.07-.7-7.4-.21-2.29 0-8.74 0-8.74l-39.93-31.39c-6.45-5.07-21.697-18.72-22.595-18.96-.941-.21-6.012 3.92-12.262 6.25-6.211 2.29-9.64 2.78-12.218 3.23-2.532.49-6.457 2.29-10.383 4.17-3.922 1.84-5.063 2.53-7.84 3.03-2.742.45-8.547-1.64-8.547-1.64l-.691 3.23M990.652 1246.65s9.938 8.99 16.878 15c6.91 5.96 28.12 23.09 33.72 27.71 5.52 4.57 19.61 15.44 21.66 17.04 2.08 1.64 4.37 1.88 6.94 1.88 2.54 0 8.75 1.84 11.53 1.84 2.78 0 7.6.2 8.09-3.47.45-3.72 2.33-10.88 2.09-13.61-.25-2.79 0-6.01.9-7.6.93-1.64 1.83-2.58 1.83-2.58s-2.28-3.02-6.21-6.7c-3.92-3.64-15.94-14.96-21.25-20.07-5.31-5.07-16.14-15.49-20.06-19.61-3.93-4.18-10.14-9.94-10.14-9.94s-1.63 6.01-5.11 9c-3.43 3.02-12.01 4.61-17.08 4.86-5.07.2-11.52 5.11-14.1 5.76-2.492.7-5.516-.9-5.516-.9s-3.226-.94-4.172 1.39M1041 1217.11l27.22 27.21c5.32 5.32 23.09 21.91 27.26 26.12 4.12 4.12 7.6 8.29 12.22 10.34 4.61 2.12 10.18 4.86 12.67 3.92 2.57-.9 4.41-4.37 5.6-8.05 1.14-3.72 4.57-8.79 11.03-10.87 6.46-2.05 10.38-2.74 13.41-2.54 3.02.25 4.61.49 4.61.49s-6.49-6.7-9.93-10.18c-3.43-3.47-13.61-13.36-19.66-18.91-5.96-5.56-21.41-21.01-25.83-25.18-4.37-4.13-10.62-9.44-10.62-9.44s-.04 4.33-3.23 7.36c-4.37 4.21-9.89 3.47-14.95 3.23-5.11-.21-8.34 1.18-11.33 3.72-3.02 2.53-5.35 5.1-6.94 5.31-1.64.24-5.27-1.64-6.26-2.09-.89-.44-5.27-.44-5.27-.44M1095.48 1192.63s15 14.1 22.4 21.45c7.39 7.4 21.65 21.25 27.91 27.46 6.21 6.25 17.53 16.88 17.53 16.88s2.33-3.47 7.6-3.92c5.35-.45 10.42-1.43 14.34-1.64 3.93-.24 10.63-.24 12.67 1.88 2.08 2.05 4.86 2.74 4.86 2.74s-3.26-4.62-7.15-9.69c-3.96-5.06-15-20.55-21.25-30.03-6.21-9.44-20.31-29.96-22.64-33.88-2.29-3.92-7.6-12.26-9.19-14.55-1.6-2.33-3.72-5.06-3.72-5.06s.49 4.37-3.23 10.78c-3.68 6.5-5.76 6.7-8.99 7.68-3.23.9-4.37-.49-9.2 2.05-4.9 2.53-7.39 7.4-10.42 8.09-3.02.65-2.86 1.15-5.31 0-3.88-1.84-6.21-.24-6.21-.24M1206.72 1246.41s1.84-3.03 3.68-5.32c1.84-2.29 4.41-4.86 3.92-6.7-.45-1.84-8.74-18.47-10.62-22.84-1.81-4.37-7.85-24-9.2-29.8-1.39-5.76-3.47-14.3-5.35-18.67-1.85-4.37-3.64-6.7-3.89-8.54l-.73-5.56s-3.44-2.29-5.07-2.78l-5.07-1.35v4.38c0 1.88-2.78 5.31-4.58 8.54-1.88 3.22-3.47 6.91-1.43 13.16 2.09 6.21 4.62 13.6 6.95 18.71 2.29 5.07 3.93 10.59 7.6 19.13 3.72 8.54 6.71 15.24 11.08 21.7 4.41 6.46 6.46 9.93 8.33 12.46 1.84 2.58 4.38 3.48 4.38 3.48M972.922 1476.53s17.976.9 31.138 1.14c13.16.24 29.79 0 38.54-1.38 8.78-1.36 23.33-2.09 28.85-1.84 5.52.24 13.85.93 27.26.48 13.36-.48 37.39-1.18 53.33-3.47 15.89-2.33 30.45-5.55 43.36-9.93 12.91-4.37 36.7-14.55 44.34-23.54 7.6-8.99 13.12-16.39 12.22-27.95-.9-11.53-5.52-23.74-9.24-30.94-3.68-7.15-12.71-22.6-14.3-25.33-1.59-2.82-15.49-15.74-21.01-21.95-5.55-6.21-23.54-25.63-30.69-34.21-7.15-8.5-12.67-15.36-15.04-17.73-3.22-3.23-5.51-6.7-5.51-6.7h-2.33s2.82 3.67 2.12 7.6c-.74 3.92-3.92 9.97-7.19 11.77-3.23 1.88-4.13 2.33-6.46 1.67-2.29-.74-4.17-1.67-5.76-2.12-1.63-.45-2.99-.7-2.99-.7s8.06 8.99 11.78 12.91c3.67 3.97 13.85 13.21 17.28 16.64 3.48 3.47 6.71 5.55 8.09 5.55 1.39 0 7.36-2.08 11.28-.45 3.93 1.6 11.12 9 11.57 14.06.45 5.07-2.09 10.18-5.52 12.68-3.47 2.57-8.54 4.65-11.77 4.41-3.27-.25-7.64-.94-10.87-2.78-2.16-1.23-4.61-1.63-4.61-1.63s.24 2.57.69 6.5c.45 3.91-1.6 7.84-3.72 11.07-2.04 3.23-6.21 5.76-11.28 6.45-5.06.7-7.4-.69-9.23.7-1.88 1.39-.45 4.37-2.09 8.09-1.6 3.68-4.17 8.99-8.99 10.87-4.86 1.8-8.99 2.94-11.32 2.94-2.29 0-2.29 1.39-2.29 4.38 0 3.92-.94 12.05-3.23 14.09-2.33 2.13-7.64 6.05-10.87 6.71-3.23.69-5.52 1.14-5.52 2.77 0 1.64 2.05 5.56 2.05 9.24 0 3.68-.7 9.24-5.07 12.22-4.37 3.02-9.24 4.62-11.07 7.64-1.88 2.99-5.07 6.21-5.97 6.46-.98.24-4.91.24-7.64 0-2.78-.25-9.48-1.63-14.31-2.33-4.86-.65-7.39-1.84-9.97-1.14-2.49.69-7.84 2.77-11.52 2.77-3.72 0-12.67-.49-18.68-1.14-6-.69-12.213-1.38-17.076-1.14-4.868.2-8.34 1.79-12.262 3.43-3.926 1.64-5.07 2.29-7.359 3.68-2.29 1.38-3.473 2.53-3.473 2.53s.246 2.13.695 3.47c.488 1.4 1.637 3.48 1.637 3.48" style="fill:#fff;fill-opacity:1;fill-rule:evenodd;stroke:none" transform="matrix(.13333 0 0 -.13333 0 215.373)"/><path d="M984.688 1434.07s13 5.47 21.952 8.29c9.43 3.03 26.27 7.16 33.87 8.75 7.64 1.68 13.2 3.92 16.15 3.02 3.02-.9 6.7-.9 8.82-.69l4.13.45s1.84-2.25.69-2.98c-1.18-.7-1.34-1.6-3.92-4.38-2.53-2.78-4.62-5.76-7.6-6.94-3.02-1.15-9.97-2.74-17.82-4.83-7.84-2.08-20.31-6-24.68-7.19-4.38-1.14-5.52-2.29-12.42-1.14-6.95 1.14-9.036 1.83-12.02 2.57-3.024.7-3.227 0-4.863-.74-1.633-.69-2.536 0-2.536 0v3.23c0 1.19.247 2.58.247 2.58M1007.29 1401.05s12.46 6.7 22.84 11.07c10.42 4.42 31.43 12.02 35.8 13.16 4.37 1.18 9.2 2.53 11.77 1.18 2.5-1.42 4.62-3.01 3.93-5.1-.7-2.05-4.17-7.15-6.71-8.54-2.53-1.36-17.28-9.44-22.88-11.77-5.52-2.33-17.74-8.75-21.41-8.99-3.73-.25-7.65.69-11.33 1.83-3.71 1.15-5.07 1.84-6.95 2.09-1.83.25-5.76 0-5.76 0s.49 1.15.49 2.29c0 1.18.21 2.78.21 2.78M1030.63 1366.19s13.85 8.09 18.47 10.87c4.57 2.74 19.61 9.89 26.03 13.36 6.5 3.47 13.4 6.5 17.12 6.26 3.68-.25 6.91-1.88 7.4-3.68.45-1.89 0-5.8-1.64-8.79-1.63-3.02-2.65-5.48-7.84-10.38-5.73-5.44-9.94-8.09-13.41-11.12-3.43-2.98-8.74-7.35-11.52-7.84-2.78-.45-7.15 2.12-9.48 2.57-2.29.45-9.24 3.23-10.83 4.13-1.64.94-4.42 2.08-6.46 1.84-2.13-.21-8.09-1.6-8.09-1.6l.25 4.38M1067.32 1336.19s8.3 7.6 14.1 12.22c5.72 4.62 16.35 11.77 21.42 15.49 5.06 3.67 8.99 6.46 10.62 6.7 1.64.21 3.27-.45 4.42-1.64 1.14-1.14 4.37-1.14 5.26-3.91.99-2.75 0-5.07.99-6.67.89-1.67 3.18-1.18 3.63-2.57.49-1.35 0-4.17 0-4.17s-11.52-8.99-15.69-12.91c-4.17-3.93-10.83-10.38-12.47-11.28-1.59-.99-7.59 2.49-11.31 4.12-3.68 1.59-12.23 4.17-15.45 4.38-3.23.24-5.52.24-5.52.24M1099.85 1314.49s9.89 9.24 14.79 13.61c4.83 4.41 9.9 9.03 13.57 12.5 3.72 3.44 11.57 9 11.57 9s3.47-.25 3.02-2.33c-.49-2.09 2.04-2.54 3.68-2.54 1.6 0 5.52.94 6.7.45 1.15-.45 2.99-1.14 2.99-3.68 0-2.53.2-4.82 1.18-5.06.9-.25 3.19.24 3.44-.74.24-.9.48-2.49.48-2.49s-12.95-12.92-18.47-18.02c-5.55-5.07-14.1-14.06-15.24-15.49a53.185 53.185 0 0 1-1.84-2.29s-1.88 5.07-6.5 9.24c-4.58 4.16-6.46 5.51-10.83 6.7-4.37 1.14-8.54 1.14-8.54 1.14M1175.54 1282.16s7.64 9.49 14.34 16.64l16.15 17.33c2.77 2.98 4.61 5.76 4.61 5.76s-4.37-10.43-5.31-15.04c-.94-4.58-2.08-13.37-2.08-17.29s-1.6-8.29-2.54-13.12c-.94-4.9-.94-9.28-.94-9.28s-3.23-1.83-5.52-2.97c-2.33-1.19-5.1-2.99-5.1-2.99s-.45 6.87-3.19 10.59c-2.78 3.67-3.92 4.65-6.25 6-2.33 1.39-5.97 1.84-5.97 1.84l1.8 2.53M1344.07 1552.01s13.12 4.82 21.42 8.29c8.38 3.48 50.71 18.07 63.75 21.5 15.94 4.13 53.05 13.12 75.48 16.59 22.39 3.48 67.39 8.34 110.75 8.34 37.15 0 71.32-3.02 89.33-5.07 18.03-2.12 54.27-8.58 69.07-12.26 14.71-3.68 39.4-9.93 53.29-14.54 13.86-4.63 35.52-11.98 43.86-15.7 8.29-3.68 13.6-4.82 14.99-6.25 1.34-1.35 1.6-3.48 5.96-5.52 4.42-2.08 10.88-4.37 10.88-4.37s-2.29-2.09-5.77-3.47c-3.47-1.39-7.84-3.68-11.32-5.12-3.43-1.34-6.9-3.43-6.9-3.43s0 4.87-1.84 6.46c-1.88 1.64-12.47 7.15-23.54 11.32-10.26 3.85-26.12 9.48-41.36 13.85-15.24 4.38-42.46 12.23-60.68 15.45-18.23 3.23-37.85 6.71-55.63 8.54-17.77 1.84-58.59 5.07-79.85 4.86-21.25-.24-61.62-2.53-81.94-5.06-20.1-2.58-53.33-7.64-72.7-12.46-19.41-4.91-45.28-11.33-55.42-14.8-10.17-3.47-22.39-8.54-26.32-8.74-3.92-.25-12.21.9-14.99.9-2.74 0-5.52 0-7.15-.45-1.6-.45-6.01-2.78-7.85-1.89-1.84.99-5.52 3.03-5.52 3.03" style="fill:#fff;fill-opacity:1;fill-rule:evenodd;stroke:none" transform="matrix(.13333 0 0 -.13333 0 215.373)"/><path d="M1977.64 1287.27s-4.83 5.07-7.41 7.85c-2.49 2.78-3.67 15.45-6.69 22.4-2.99 6.94-13.82 21.45-20.32 28.15-6.41 6.67-18.27 18.76-42.87 34.62-22.64 14.51-46.18 27.46-71.35 36.9-25.17 9.52-42.7 16.63-72.95 23.33-30.24 6.71-69.47 13.66-112.17 15-42.71 1.39-79.57-2.04-104.54-5.31-24.73-3.23-60.04-9.69-92.36-20.55-32.29-10.84-40.38-14.76-50.52-19.62-10.17-4.83-34.65-17.04-43.64-23.09-8.99-5.97-23.3-15.9-32.08-21.45-8.75-5.52-10.42-10.06-15.7-8.75-7.6 1.84-9.72 8.75-9.72 8.75s6.5 7.84 12.75 14.09c6.21 6.21 20.96 18.68 30.2 26.32 9.28 7.6 27.26 23.05 30.24 25.83 3.02 2.82 11.07 12.46 11.07 12.46s2.54-5.51 7.2-4.13c4.62 1.35 11.97 6.91 16.38 13.82 4.38 6.95 11.98 23.09 10.14 36.49-1.84 13.37-3.68 23.09-7.35 25.63-3.72 2.53-9.98 6.9-14.55 7.35-4.62.5-6.25-.2-8.54.7-2.33.94-5.57 3.71-5.57 3.71s11.08 4.13 15.9 6.21c4.91 2.09 26.57 9.94 41.12 13.86 14.55 3.93 29.99 7.85 48.46 11.53 18.48 3.71 45.7 8.09 67.4 10.17 21.7 2.09 49.85 4.17 66.49 3.92 16.58-.2 55.13-2.33 70.82-4.12 15.73-1.88 46.18-5.81 64.44-9.97 18.19-4.13 52.4-12.43 67.4-17.74 15-5.35 32.97-10.87 34.85-12.67 1.85-1.88 3.93-3.96 6.67-5.1 2.77-1.15 5.56-3.03 5.56-3.03s-7.44-8.18-12.47-16.84c-14.8-25.21 2.86-57.05 26.36-74.5 30.44-22.6 86.03-57.09 95.67-108.62 2.24-12.06 1.68-33.6 1.68-33.6" style="fill:#fff;fill-opacity:1;fill-rule:evenodd;stroke:none" transform="matrix(.13333 0 0 -.13333 0 215.373)"/><path d="M1998.23 1314.94c-1.88 17.86-12.62 35.97-20.76 47.81-8.21 11.86-13.36 24.07-22.6 39.64-9.24 15.61-34.98 30.94-51.53 42.63-12.67 8.91-28.97 28.53-28.97 44.14 0 7.39-3.73 18.59-12.63 13.57 1.55 3.79 5.11 7.52 9.52 11.19 8.53 7.15 23.98 16.88 38.5 22.15 14.55 5.31 49.4 14.8 63.71 18.02 14.29 3.19 54.71 9.89 71.34 11.33 16.61 1.35 45.7 2.73 59.56 2.73 15 0 43.84-1.47 65.3-3.68 22.6-2.29 53.53-6.94 73.85-8.09 20.35-1.14 55.16-2.04 70.41-1.59 15.24.45 43.15 1.59 58.39 1.84 15.25.2 70.87 2.08 89.34 3.23 18.44 1.14 68.54 4.12 87.26 5.06 18.71.95 75.92 2.09 92.31 2.09s87.26-3.23 105.23-4.17c18.02-.9 62.33-3.43 78.72-4.37 16.42-.94 39.92-1.84 53.57-2.54 13.56-.69 53.98.45 62.77.45 8.74 0 39.48.25 56.32.9 16.88.74 61.62 4.17 78.01 5.56 16.39 1.39 58.4 5.76 71.77 6.74 13.4.9 26.76 2.95 32.57 2.05 5.76-.95 12.46-5.31 14.3-7.4 1.84-2.05 9.68-10.62 15.45-16.84 5.8-6.25 11.56-13.16 12.46-15.49.94-2.28 4.66-7.35 3.93-9.19-.7-1.88-1.4-5.35-3.48-6.5-2.04-1.14-11.48-5.27-11.48-5.27s-.49 4.37-3.72 5.76c-3.23 1.39-8.79 3.23-12.95 1.8-4.13-1.35-17.54-7.11-25.38-10.59-7.86-3.47-20.77-9.48-26.77-10.17-5.97-.65-29.51-1.6-45.2-1.8-15.74-.24-61.67-.49-81.49-1.19-19.86-.69-87-1.14-101.1-1.38-14.11-.21-75.73-.9-95.35-.9-19.62 0-74.54-1.15-92.32-.95-17.77.25-96.48-1.18-113.81-.89-17.28.24-66.49-.29-79.61-.49-13.16-.25-30.94-.9-48.02-2.05-17.09-1.18-41.11-3.71-47.97-4.16-6.96-.46-16.19.69-19.42 1.83-3.23 1.15-3.47 1.64-5.55 1.85-2.05.24-7.86 1.14-7.86 1.14l-1.34 3.02s7.6 1.39 13.81 2.74c6.25 1.43 11.53 4.21 22.64 6.5 11.08 2.29 38.99 7.6 52.88 9.93 13.82 2.29 76.39 13.36 94.41 15.69 17.97 2.29 64.81 7.6 81.2 8.75 16.42 1.14 63.05 4.86 79.44 5.76 16.35.94 53.29 2.57 62.53 2.33 9.24-.25 40.83-.9 53.29-1.59 12.46-.74 19.17-.74 19.17-.74l2.33 8.09s-13.16.7-24.28 1.39c-11.03.7-39.68 1.15-49.37 1.15-9.68 0-44.78-.21-58.15-.9-12.78-.7-31.63 1.47-46.88 2.04-18.46.7-60.23.25-77.31-1.14-17.08-1.35-65.3-5.97-80.55-7.85-15.24-1.84-67.6-9.44-91.63-13.85-24.02-4.38-61.38-11.73-78.95-15-17.53-3.23-39.93-7.85-59.99-9.94-20.11-2.04-60.69-2.77-75.48-2.52-14.8.24-58.4 1.18-80.34.93-21.92-.24-58.81-.24-80.32-2.78-21.45-2.53-39.71-6.7-50.79-10.42-11.07-3.68-22.39-7.84-29.96-13.36-7.64-5.52-11.11-11.52-10.87-13.61.25-2.08.9-3.43.9-3.43l5.76-1.88s-5.52-4.38-8.74-7.15c-3.23-2.75-6.71-9.25-7.85-14.76-1.14-5.56-3.02-18.92-3.22-24.48-.25-5.56-.95-7.85.94-12.26 1.79-4.37 10.58-20.06 14.05-26.77 3.47-6.66 12.67-21.45 15.24-25.82 2.54-4.38 7.37-10.63 10.83-15.94 3.48-5.32 9.45-18.02 10.14-22.15.74-4.17.74-10.14.74-16.15v-30.03c0-4.82-.45-8.75-1.43-9.89-.9-1.14-3.69-3.47-3.93-6.05-.21-2.49-1.8-8.29-2.49-11.32-.69-2.94-3.03-9.2-3.03-9.2s-3.67 7.4-3.91 8.3c-.21.9 1.59 6.95.93 15.69-.69 8.8-14.06 36.67-17.04 64.86" style="fill:#fff;fill-opacity:1;fill-rule:evenodd;stroke:none" transform="matrix(.13333 0 0 -.13333 0 215.373)"/><path d="M1989.85 1438.44s3.56 5.85 13.16 12.22c8.34 5.56 21.95 11.56 30.24 14.1 8.3 2.53 38.79 9.44 52.64 10.58 13.86 1.19 51.04 1.43 63.22 1.64 12.26.24 35.6-.45 43.44-.21 7.85.21 18.89 0 27.23 0 8.29 0 24.22.21 29.29.21s14.8.49 17.57-.21c2.74-.69 7.85-1.63 8.55-3.72.65-2.08 1.34-3.92 0-6.21-1.43-2.29-1.19-5.31-1.19-6.21v-2.12s-1.64-.9-3.27-2.05c-1.59-1.18-9.2-5.55-9.2-5.55s0 1.63-1.38 4.61c-1.35 2.99-5.77 5.56-9 6.25-3.22.66-14.99 1.35-20.11 1.6-5.05.2-17.28.45-22.14.94-4.82.45-7.15 1.15-9.48 1.15-2.29 0-4.13-.25-5.97-1.64-1.88-1.39-2.53-2.74-3.67-2.98-1.15-.21-3.48.24-4.42.24-.9 0-2.49-1.35.49-4.17 4.37-4.12 10.83-4.86 16.59-5.76 5.8-.94 13.86-2.29 19.86-3.47 6.01-1.15 14.11-2.54 19.38-3.72 5.31-1.15 10.42-1.35 12.22-1.6 1.87-.2 5.1-1.59 4.9-3.47-.25-1.8-.73-3.48-1.43-5.07-.7-1.63-.7-4.61-.45-6.01.25-1.38-.25-2.74-1.6-3.67-1.42-.94-7.15-2.99-8.58-3.73-1.35-.69-3.88-.44-3.88-.44s.69 3.68 0 4.62c-.73.93-2.78 2.98-7.15 4.37-4.41 1.39-15.93 4.42-21.5 5.56-5.52 1.14-14.99 3.68-21.21 4.82-6.25 1.14-10.42 3.02-12.22 1.43-1.87-1.63-2.32-3.02-3.47-3.23-1.15-.24-3.02.66-4.17-.45-1.19-1.18-2.78-2.57-1.64-3.92 1.2-1.43 5.37-3.96 9.49-5.36 4.17-1.38 17.78-5.31 23.79-7.15 5.96-1.84 16.38-6 21.9-7.15 5.56-1.14 11.32-2.98 12.5-6 1.14-3.03.9-5.97-1.18-7.85-2.09-1.84-2.54-4.37-3.03-5.52-.45-1.18-1.14-4.17-1.14-4.17s-5.31-3.43-6.42-3.92l-5.11-2.09s1.84 2.34.21 6.25c-1.59 3.93-6.21 6.22-12.22 9.24-5.96 2.99-18.23 7.36-22.85 9-4.62 1.63-19.57 7.6-23.05 8.78-3.47 1.15-7.39 2.49-10.62 1.84-3.27-.69-4.9-2.57-3.93-4.17.9-1.59 3.44-2.33 3.44-4.17 0-1.84 0-3.43-.94-3.92-.89-.45-1.15-.66-1.15-.66s7.85-5.35 13.2-7.84c5.28-2.58 18.43-9.52 21.91-11.32 3.48-1.88 14.31-6.95 16.83-8.79 2.54-1.84 7.86-4.86 6.92-7.39-.9-2.54-1.81-6.71-2.3-8.06-.48-1.43.49-2.57-1.83-3.46-2.34-.91-10.87-3.24-10.87-3.24s-.21 2.09-.69 3.24c-.45 1.14-2.06 3.22-6.67 5.96-4.61 2.77-21 12.5-25.17 14.55-4.17 2.12-14.55 7.64-16.85 9.72-2.32 2.04-8.08 6.91-10.17 8.09-2.04 1.15-6.25 3.19-8.99.45-2.2-2.24-3.23-6.7-1.88-8.29 1.43-1.64 4.46-4.42 4.46-4.42s-2.78-2.08-2.33-3.22c.45-1.19 7.84-6.46 13.36-10.38 5.55-3.93 20.07-13.9 23.79-16.39 3.68-2.54 11.52-7.4 14.1-9.73 2.53-2.29 3.22-4.37 1.35-6.42-1.85-2.12-2.49-4.16-2.49-4.16s.19-2.78.19-3.92c0-1.19-.45-2.54-.45-2.54s-1.18-1.14-4.21-1.64c-2.94-.45-7.31-.69-7.31-.69s-.98 1.39-.7 3.47c.21 2.09-1.75 3.48-4.9 6.22-3.92 3.47-15 11.11-20.52 15.03-5.51 3.93-16.38 11.08-18.91 13.82-2.54 2.77-7.2 9.48-9.69 11.56-2.58 2.09-6 4.38-8.99 3.23-3.03-1.14-6.25-3.47-6.7-6.25-.45-2.74-.94-4.82.9-6.21 1.83-1.39 4.37-3.03 4.37-3.93 0-.9-2.99-1.63-2.29-3.22.69-1.6 10.38-8.79 14.75-12.47 4.38-3.68 19.42-15.49 23.09-18.71 3.72-3.24 10.63-9.69 11.57-12.47.9-2.78.45-8.5-.69-10.14-1.16-1.63-4.38-2.28-7.41-2.78-3.02-.48-6.94-.93-6.94-.93s1.43 3.47.69 4.86c-.69 1.39-7.1 5.56-12.01 9.48-4.82 3.92-19.33 16.14-24.89 20.76-5.56 4.58-11.07 10.17-12.91 14.1-1.88 3.92-5.11 9.2-9.73 9.2s-9.23-.7-12.02-4.38c-2.77-3.68-2.77-7.64-.65-9.23 2.09-1.64 5.72-3.93 4.58-4.58l-4.13-2.58s4.37-2.61 9.93-7.4c6.46-5.51 17.54-14.54 21.7-18.46 4.13-3.93 12.67-12.02 14.3-13.37 1.6-1.39 3.93-5.51 3.69-8.54-.21-3.02-.66-6.95-1.64-8.54-.9-1.64.29-2.78-2.05-3.92-2.32-1.19-6.69-1.19-8.29-1.19-1.64 0-3.02.49-3.02.49s3.92 2.98 3.72 4.41c-.25 1.35-5.07 6.21-8.34 8.99-3.24 2.79-18.92 16.15-24.73 21.46-5.72 5.31-14.05 13.61-15.9 18.67-1.83 5.08-1.83 11.58-4.86 15.7-2.98 4.17-9.64 9.24-12.67 13.65-3.02 4.37-12.91 19.62-17.53 29.05-4.65 9.45-9.48 16.64-10.62 24.69-1.14 8.09-.25 12.91-1.64 15.49-1.39 2.53-4.61 6.46-6.21 6.46-1.63 0-6.95.69-6.95.69M2027.04 1323.48s12.67-14.55 15.9-17.29c3.27-2.78 9.97-6.9 12.01-8.09 2.09-1.14 9.93-8.99 12.02-11.52 2.08-2.54 7.15-7.4 6.91-10.38-.21-3.02-2.54-11.12-4.38-12.92-1.87-1.88-4.62-4.16-6.94-4.45-2.26-.16-6.42.53-6.42.53s5.07 1.35 5.07 3.43c0 2.09-.91 3.92-4.62 7.61-3.68 3.67-5.11 5.1-9.03 10.38-3.93 5.31-7.11 10.87-7.11 10.87l-2.78-.9-2.78-.25s-.94 8.79-2.09 13.61c-1.18 4.82-2.77 9.07-3.42 11.32-.99 2.98-2.34 8.05-2.34 8.05M2025.65 1218.7s3.23 7.64 3.68 10.62c.45 2.98 2.09 8.34 2.33 9.69l.69 3.68s5.97-7.85 7.86-10.1c1.83-2.32 8.08-7.19 10.37-10.41 2.29-3.24 12.71-16.6 17.09-22.65 4.37-5.96 16.83-22.6 19.12-25.83 2.33-3.22 9.27-13.16 8.79-15.93-.45-2.74-.94-6.22-2.29-8.99-1.4-2.78-2.78-5.76-4.17-6.01-1.4-.2-8.09-.45-8.09-.45s1.83 2.53 1.83 4.16c0 1.6-2.98 6.42-7.11 8.75-4.16 2.29-12.25 6.7-14.09 8.79-1.85 2.08-7.52 17.08-10.14 22.39-3.23 6.42-8.79 17.04-12.26 21.91-3.47 4.86-5.76 9.93-7.15 10.38-1.39.45-.69-.7-2.78-.9-2.08-.25-3.68.9-3.68.9M2036.28 1253.31s8.5-2.98 13.36-2.98c4.86 0 8.58-.25 9.73.21 1.14.48 3.23 4.16 8.05 5.35 4.87 1.14 9.44.44 14.09-3.03 4.62-3.47 27.72-26.56 31.15-29.79 3.47-3.23 18.47-17.74 23.09-22.11 4.61-4.41 12.01-11.77 13.4-14.79 1.35-3.03 2.04-5.56.9-7.15-1.14-1.6-2.77-2.78-3.47-4.87-.65-2.08-1.15-6.7-2.33-8.05-1.14-1.42-2.74-3.02-5.97-3.02-3.23 0-6.45.45-6.45.45s3.67 2.08 3.67 4.37c0 2.33-1.14 5.35-4.37 7.19-3.23 1.84-6.66 3.68-11.57 6.25-4.81 2.5-8.74 5.97-12.22 9.9-3.46 3.92-11.52 14.79-15.45 19.16-3.91 4.38-13.39 16.59-17.77 20.76-4.37 4.13-8.79 8.05-14.31 9.24-5.51 1.14-6.94 1.39-8.08 1.39-1.15 0-3.48-3.72-3.03-4.62.49-.9-2.24 1.39-4.58 4.37-2.32 3.03-7.84 11.77-7.84 11.77M2080.13 1263.94s.65 1.6.9 3.92c.24 2.33.69 5.32 1.88 5.07 1.14-.2 6.9-2.94 10.83-2.94 3.92 0 4.41.65 4.41.65s2.05 3.47 6.87 4.41c4.9.9 6.49 1.11 8.09 1.11 1.64 0 3.92.49 9.03-1.6 5.07-2.08 19.17-13.61 24.44-17.77 5.31-4.17 26.81-21.01 32.78-25.83 6-4.87 12.94-9.48 14.79-11.32 1.84-1.88 7.84-7.6 6.46-10.18-1.39-2.49-4.38-5.51-5.11-8.29-.66-2.78-.9-6.71-1.35-8.3-.45-1.63-3.72-2.33-5.31-2.08-1.64.2-6.26.45-6.26.45s2.58 1.83 3.27 3.67c.65 1.88-.69 3.97-3.27 5.81-2.53 1.83-6.66 4.61-11.53 6.91-4.86 2.28-12.21 8.53-18.22 13.4-6 4.82-21.7 19.37-25.17 22.6-3.48 3.26-14.31 12.46-17.08 13.61-2.79 1.18-10.83 2.57-13.86 3.22-2.98.7-7.39 1.68-7.39 1.68s-2.01-3.02-2.95-3.02c-1.88 0-1.63.2-1.63.2s.2 0-1.39 1.39c-1.64 1.43-3.23 3.23-3.23 3.23" style="fill:#fff;fill-opacity:1;fill-rule:evenodd;stroke:none" transform="matrix(.13333 0 0 -.13333 0 215.373)"/><path d="m2118.66 1287.27.26 4.13s2.97 1.15 6.9 1.15c3.92 0 7.64-.21 12.01 1.43 4.38 1.59 4.38 1.14 7.39 2.98 2.95 1.84 4.38 2.29 7.41 4.17 2.94 1.83 2.28 4.37 4.13 4.61 1.83.21 7.39.91 8.98 0 1.59-.94 13.37-10.42 20.31-14.54 6.95-4.17 27.91-17.09 35.77-21.95 7.84-4.86 19.61-11.28 23.53-14.75 3.93-3.48 6.51-5.35 6.25-8.59-.19-3.18-2.77-5.51-4.12-8.04-1.44-2.54-1.14-4.87-2.13-6.91-.9-2.08-1.59-4.17-1.59-4.17l-9.69-2.09s2.54 2.34 2.09 4.83c-.45 2.57-2.09 5.11-6.26 7.4-4.17 2.32-9.68 2.57-14.29 4.16-4.58 1.64-12.72 7.15-17.54 10.87-4.87 3.68-17.08 13.12-22.88 17.04-5.73 3.93-14.07 10.63-18.19 12.51-4.17 1.84-11.78 3.43-16.19 3.68-4.4.25-9.68-.25-10.58 0-.94.25-2.33-4.86-4.17-3.23-1.88 1.59-2.57 1.84-4.86 3.23-2.28 1.39-2.54 2.08-2.54 2.08M2176.61 1319.11s6.21.45 7.61 3.23c1.35 2.77.9 8.79 1.35 11.56.48 2.78.24 4.38 1.42 4.62 1.14.21 4.17-1.84 7.12-2.13 3.02-.2 6.74 0 11.56-2.49 4.87-2.57 25.63-13.4 36.5-18.02 10.83-4.62 32.53-15.94 39.23-18.47 6.66-2.53 17.73-6.66 19.41-9.69 1.59-3.02 2.49-6.25.65-9.23-1.83-2.99-3.23-4.62-2.53-6.7.7-2.09 2.53-4.58.9-5.77-1.6-1.14-5.51-1.38-8.05-2.29-2.53-.94-5.32-.94-5.32-.94s2.34 1.6 1.84 4.17c-.45 2.49-2.73 5.97-7.6 7.15-4.86 1.15-10.38 1.39-14.79 2.54-4.38 1.14-8.29 2.98-15 6.9-6.7 3.93-20.31 12.02-27.46 15.7-7.15 3.71-20.32 10.63-24.93 13.61-4.61 3.02-6.22 4.41-8.54 5.1-2.29.7-5.31.9-6.9.45-1.64-.45-6.47.7-6.47.7M2215.4 1356.5s1.14 3.68 1.8 7.85c.73 4.17-.21 6.25 1.18 6.7 1.4.45 3.72-.69 6.66-.45 3.03.25 6.05.45 8.09-.74 2.08-1.14 12.26-5.06 17.33-6.86 5.07-1.88 31.39-11.32 40.17-14.59 8.75-3.23 24.69-8.99 31.6-11.52 6.94-2.58 11.56-3.23 14.09-5.52 2.54-2.33 4.86-5.56 4.62-10.18-.21-4.62.69-6-1.15-8.29-1.87-2.33-2.32-2.78-2.52-4.17-.25-1.35 1.59-3.93.44-5.32-1.14-1.38-3.02-1.62-7.15-2.28-4.16-.7-6.21-1.15-6.21-1.15s3.43 3.68.2 6.67c-3.22 2.98-4.36 4.85-11.77 7.6-7.39 2.77-19.17 7.64-24.48 9.72-5.31 2.05-28.15 12.47-34.61 14.76-6.45 2.32-19.62 7.39-24.24 9.92-4.62 2.54-6.45 3.48-7.84 5.31-1.39 1.85-6.21 2.54-6.21 2.54M2244 1394.84s-.45 11.27 1.15 11.76c1.64.46 6.26-.94 8.3-.69 2.08.2 7.84.2 13.19-1.19 5.27-1.38 34.62-8.78 46.14-11.27 11.53-2.54 26.98-6.25 36.7-7.85 9.69-1.64 16.15-1.64 18.23-5.11 2.08-3.47 1.84-10.83 1.64-14.79-.25-3.89.89-12.22.2-13.36-.65-1.15-5.52-3.24-8.99-4.63-3.43-1.34-4.87-2.04-4.87-2.04s1.64 4.17-.69 7.12c-2.29 3.02-11.32 6.69-17.29 8.33-6 1.63-23.3 7.36-32.77 10.14-9.48 2.78-25.17 8.09-30.45 9.48-5.35 1.39-11.56 2.98-15.24 5.31-3.72 2.29-7.65 6.46-9.24 7.4-1.63.89-6.01 1.39-6.01 1.39M2265.21 1436.6l-.2 4.37s5.27 5.07 6.7 5.07c1.35 0 5.07.74 10.83.25s30.45-3.44 40.17-5.07c9.69-1.59 35.56-5.07 42.92-6.01 7.44-.94 18.75-.2 22.39-1.19 6.25-1.59 5.31-7.14 5.8-11.02.45-3.97 1.15-9.94.65-11.54-.45-1.62-3.91-4.9-7.59-7.64-3.73-2.77-7.4-4.86-9.45-6-2.12-1.14.66 4.82-1.63 7.15-1.42 1.43-5.07 3.23-10.87 4.37-5.76 1.14-15 3.27-20.55 4.42-5.52 1.14-26.77 5.27-35.32 6.9-8.49 1.6-18.22 2.58-23.98 5.32-5.76 2.78-9.45 7.4-12.67 8.78-3.27 1.39-7.2 1.84-7.2 1.84M2282.09 1467.05s-1.59 4.61-1.59 5.8c0 .9.45 2.29.45 2.29s9.44-.45 15.9.69c6.45 1.19 25.62 4.13 37.84 6.01 12.21 1.84 35.31 5.97 42.95 7.4 7.6 1.35 16.88 2.98 20.07 1.59 3.23-1.39 5.55-4.62 6-7.85.49-3.22 3.03-10.37 3.93-13.36.93-3.02 3.27-7.64 2.78-9.03-.45-1.39-4.41-6.21-7.16-8.79-2.77-2.53-9.48-8.99-9.48-8.99s.95 5.32-1.14 8.55c-2.04 3.27-6.25 7.19-11.53 8.78-5.31 1.63-27.01 3.23-34.65 2.98-7.6-.2-26.27-.45-35.06-.2-8.79.2-16.84 1.8-20.56 3.47-3.68 1.59-2.62 1.11-4.13 1.59-2.77.91-4.62-.93-4.62-.93M2406.74 1442.12s8.99 9.72 11.32 12.46c2.28 2.78 4.58 6.26 6.17 6.71 1.68.44 7.6-.33 11.32.93 4.9 1.64 36.04 1.35 44.34 1.64 8.33.2 65.75.2 78.22.2 12.51 0 93.71 1.15 107.15.95 13.36-.25 72.21 0 87.21.45 15.04.45 87.5 0 104.82.69 17.29.65 107.52 1.14 122.56 1.64 15 .44 84.68 1.59 97.4 1.83 12.66.2 37.84.65 45.68 1.1 7.85.54 15 1.44 18.03.99 2.98-.45 3.46-3.48 4.36-5.35.9-1.81 5.31-15.9 7.4-22.11 2.05-6.26 3.68-14.55 3.93-18.48.2-3.92 1.59-8.79.69-9.72-.94-.94-9.23-5.76-10.87-6.21-1.6-.46-3.68-.91-3.68-.91s1.63 2.74.45 5.07c-1.14 2.25-6 5.72-8.99 6.17-3.02.53-7.39-.45-13.36-2.74-6.05-2.32-23.59-7.35-33.52-9.47-9.88-2.05-14.25-3.48-31.13-3.93-16.85-.45-55.87-.21-72.46.45-16.63.73-66.05 2.12-89.34 3.27-23.33 1.18-80.99 4.13-101.14 5.11-20.07.9-81.94 4.57-96.65 5.52-14.79.89-87.01 5.27-102.05 6.45-15 1.15-90.48 5.76-102.7 6.91-12.26 1.18-38.53 3.02-46.63 3.47-8.08.45-19.36 1.39-23.53 2.54-4.17 1.14-4.17 2.77-7.4 3.47-3.23.69-7.6.9-7.6.9M2376.01 1384.66s10.66 6.5 15.24 10.18c4.62 3.67 9.93 7.11 11.11 10.37 1.15 3.24 1.15 5.08 1.15 5.08s32.53-.95 39.93-1.64c7.35-.65 43.15-2.99 52.63-3.68 9.45-.7 66.9-4.82 84.93-5.97 18.01-1.18 98.77-6.7 114.91-7.64 16.19-.94 80.59-4.86 96.49-5.8 15.94-.9 77.56-3.92 97.67-4.82 20.07-.9 90.23-2.78 102.25-3.03 11.98-.2 51.21-.65 58.16-.2 6.9.45 15.44 1.14 20.06 1.14 4.62 0 9.89-.45 10.13-5.31.29-4.82-.69-25.14-2.73-31.84-2.09-6.7-6.71-17.77-10.18-20.76-3.47-3.02-8.75-5.8-8.75-5.8s2.04 4.37.7 6.95c-1.39 2.53-6.25 6.25-9.68 6.01-3.48-.21-24.03-5.32-34.17-6.46-10.18-1.15-27.01-3.03-39.73-2.78-12.66.2-42.01 1.39-56.79 2.53-14.72 1.15-54.94 4.17-74.99 6.21-20.07 2.09-74.8 8.14-100.17 11.08-25.42 3.02-76.67 9.48-94.61 11.77-18.03 2.33-76.67 10.18-92.36 12.46-15.7 2.34-57.71 7.85-69.23 9.73-11.56 1.84-47.81 7.15-58.16 8.54-10.42 1.35-16.87 2.78-21.49 2.78-4.62 0-8.09.45-14.06 0-6.01-.45-5.06-.45-7.84-.45-2.58 0-3.48.21-6.25.45-2.79.2-4.17.9-4.17.9M2348.34 1332.51s8.74 2.78 13.6 5.07c4.87 2.33 12.72 4.37 15 8.3 2.34 3.92 2.79 4.86 2.54 7.39-.2 2.54-.9 4.87-.9 4.87s15.24-.94 21.21-1.39c6.01-.49 34.86-4.87 43.85-6.01 9.04-1.18 53.09-8.05 65.1-9.73 12.01-1.59 93.51-12.91 109.4-14.99 15.94-2.05 85.66-11.08 98.57-12.47 12.92-1.35 91.39-10.17 103.64-11.28 12.22-1.14 56.32-5.31 71.52-6.45 15.24-1.19 47.82-3.03 61.87-3.24 14.1-.24 24.24.21 27.91-.93 3.72-1.19 6.5-3.68 5.81-6.26-.7-2.53-3.68-24.68-5.07-29.06-1.39-4.4-3.68-12.95-5.81-15.93-2.04-2.99-3.67-6.46-7.15-8.34-3.47-1.79-4.82-2.29-4.82-2.29s2.54 4.87 1.14 7.64c-1.38 2.74-6.45 7.61-9.47 7.85-2.99.25-14.55-1.88-22.16-3.02-7.6-1.15-21.65-2.78-31.18-3.47-9.43-.66-21.41-1.6-27.46-1.36-5.97.25-17.29 1.36-27.22 2.74-9.93 1.43-46.38 6.46-59.33 8.59-12.91 2.04-55.38 9.44-73.12 12.66-17.81 3.24-80.83 15.94-93.05 18.73-12.22 2.73-59.1 12.91-70.87 15.69-11.76 2.73-63.01 14.75-74.78 17.73-11.77 3.02-44.5 10.63-53.33 12.71-8.75 2.09-26.73 6.45-31.59 7.4-4.87.9-10.38 2.29-14.55 1.18-4.17-1.18-12.71-3.71-15.44-4.66-2.79-.93-3.24-1.38-7.41-.69-4.13.69-6.45 3.02-6.45 3.02" style="fill:#fff;fill-opacity:1;fill-rule:evenodd;stroke:none" transform="matrix(.13333 0 0 -.13333 0 215.373)"/><path d="M2308.61 1287.97s8.55.45 12.47 1.35c3.92.93 13.85 3.02 18.27 4.37 4.37 1.43 5.96 2.13 6.45 4.41.45 2.29-.49 8.55.24 11.08.66 2.53 1.81 5.56 1.81 5.56s9.48-2.09 13.4-2.33c3.93-.25 17.33-3.03 22.84-4.37 5.57-1.39 68.79-17.29 78.71-19.87 9.93-2.53 82.19-20.06 94.61-22.63 12.51-2.5 71.32-15.46 84.51-18.2 13.17-2.77 100.62-18.91 115.17-21.25 14.55-2.29 64.37-10.13 76.17-11.31 11.78-1.15 28.86-2.99 32.34-3.93 3.46-.94 6.66-2.29 5.96-6.46-.91-5.76-5.77-17.32-8.54-22.84-2.74-5.52-7.15-15.49-11.98-21.05-4.86-5.51-8.09-9.89-11.31-11.97-3.24-2.08-4.38-2.74-4.38-2.74s2.78 4.13 2.08 6.91c-.73 2.74-4.86 6.46-9.03 7.15-4.16.65-13.16.2-22.15.2-8.95 0-35.3 1.19-58.4 4.66-23.05 3.43-58.4 9.2-82.14 14.75-23.79 5.57-57.74 13.61-81.98 20.56-24.19 6.91-64.12 18.23-89.34 26.73-25.12 8.58-57.41 19.16-71.51 24.27-14.1 5.07-55.42 19.62-61.87 22.16-6.46 2.53-10.83 3.47-15.7 3.92-4.82.45-10.83-.7-15.93 0-5.07.69-11.32 2.33-14.06 3.23-2.78.9-4.82 1.59-6.01 3.71-1.15 2.09-.7 3.93-.7 3.93M2260.6 1247.34s15.48 3.68 23.34 6.71c6.62 2.49 15.24 6.21 22.63 5.52 7.36-.69 23.29-6.02 32.29-9.44 8.99-3.48 41.07-14.8 49.65-18.03 8.54-3.27 81.9-27.95 93.67-31.63 11.77-3.68 75.52-22.64 88.88-26.32 13.36-3.71 74.79-19.41 89.34-22.35 14.5-3.02 38.5-7.4 45.94-8.83 7.35-1.35 14.29-3.19 14.95-6.66.69-3.47.24-9.03-1.14-11.77-1.35-2.77-3.69-11.77-5.77-17.33-2.09-5.51-4.86-12.66-7.8-15.93-3.03-3.23-9.72-4.62-9.72-4.62s3.46 2.32 3.01 5.8c-.49 3.43-1.63 5.07-4.41 6.91-2.77 1.88-4.37 3.47-8.29 3.67-3.93.25-14.1-.9-21.95-1.34-7.85-.45-34.86-.45-45.44-.45-10.63 0-21.25-.7-29.1.2-7.85.94-17.54 2.57-29.75 6.01-12.26 3.43-42.46 14.55-55.91 19.82-13.36 5.35-53.29 23.09-63.92 27.91-10.62 4.9-50.3 24.52-63.46 31.19-13.12 6.69-31.84 15.97-42.01 21.49-10.13 5.52-32.09 17.53-37.85 20.31-5.76 2.78-12.01 4.82-16.87 5.76-4.83.94-11.77 3.68-13.81 4.62-2.09.94-7.16 2.29-7.16 2.29l.66 6.49M2209.6 1212.49s16.39 3.67 20.55 5.27c4.13 1.63 13.16 3.72 16.64 3.02 3.42-.69 15.45-6.45 22.59-10.38 7.15-3.96 38.78-20.8 48.96-26.07 10.14-5.35 51.9-26.77 61.39-31.38 9.48-4.62 40.16-19.87 51.2-24.73 11.11-4.86 49.41-21.9 60.28-26.28 10.01-4.09 26.08-9.97 35.3-13.2 9.24-3.19 21.01-6.66 26.53-8.29 5.56-1.59 15.24-4.17 15.93-6.66.71-2.58.71-6.26-1.14-10.18-1.83-3.93-6.21-16.14-8.33-20.07-2.05-3.92-5.52-11.56-8.5-14.34-3.02-2.74-4.42-4.17-6.25-4.62-1.84-.45-2.04-.2-2.04-.2s3.42 4.12 3.42 5.76c0 1.59-2.08 7.15-4.86 8.99-2.73 1.84-6.46 3.72-9.44 3.72-3.02 0-12.46 0-21.45.9-9.03.89-23.79 2.77-34.62 5.07-10.87 2.32-18.27 3.47-27.25 7.39-9 3.92-28.86 14.31-39.24 20.31-10.42 6.01-43.4 26.32-53.78 33.27-9.85 6.53-57.22 40.37-64.41 45.44-7.14 5.11-24.23 17.54-31.14 22.85-6.94 5.31-16.83 13.2-20.76 14.99-3.92 1.84-15.49 6.05-19.45 7.65-3.88 1.59-8.29 2.98-9.44 5.52-1.14 2.53-.69 6.25-.69 6.25M2159.29 1182s8.99-.45 12.91.45c3.92.94 12.22 3.27 14.79 3.27 2.54 0 7.37.9 11.97-1.14 4.62-2.13 16.4-8.83 22.45-13.65 5.96-4.87 31.14-24.24 38.98-30 7.85-5.76 45.69-32.57 53.29-37.84 7.65-5.32 42.01-28.16 51.25-33.72 9.28-5.55 26.32-15.94 34.61-20.76 8.34-4.86 17.58-9.48 20.11-12.02 2.54-2.57 5.76-5.06 3.23-10.87-2.58-5.72-9.89-17.53-11.77-20.31-1.84-2.78-6.95-7.844-9.44-9.64-2.58-1.883-3.72-2.332-3.72-2.332s3.93 4.375 3.19 7.402c-.65 2.98-2.5 7.35-7.12 9.89-4.61 2.53-13.84 3.47-20.75 5.11-6.91 1.59-32.58 7.84-42.46 10.58-9.98 2.78-18.27 5.11-24.48 9.72-6.25 4.62-22.6 19.83-30.45 27.02-7.84 7.11-24.52 22.84-33.96 31.39-9.44 8.54-28.85 26.77-35.76 33.43-6.94 6.7-25.87 23.33-29.14 27.01-3.18 3.72-11.03 11.07-13.36 13.4-2.33 2.29-4.13 2.09-5.52 4.41-1.38 2.25-.69 5.73-.24 6.66.49.95 1.39 2.54 1.39 2.54M2101.34 1143.46l2.08 6.95c.7 2.29.7 3.68.7 3.68s8.09-.45 14.54.45c6.47.94 9.93 2.53 15.45 2.08 5.56-.49 8.1-1.63 10.87-7.15 2.78-5.56 11.07-14.55 16.85-20.11 5.76-5.52 33.71-31.34 42.25-39.48 8.5-8.05 35.51-33.67 45.03-42.21 9.41-8.54 22.32-19.82 25.79-23.29 3.47-3.47 11.56-11.33 13.45-13.65 1.8-2.29 1.35-6.91-.74-10.34-2.04-3.48-6.46-10.628-9.69-13.656-3.22-3.023-10.18-7.839-10.18-7.839s2.58 5.062 1.89 7.39c-.69 2.336-5.8 6.91-9.48 8.301-3.72 1.348-19.57 5.554-26.53 7.594-6.94 2.13-22.18 8.09-26.32 11.33-4.17 3.22-22.39 25.13-26.56 30.24-4.17 5.07-20.07 25.83-25.58 33.02-5.56 7.15-17.82 24.23-24.53 32.73-6.66 8.58-17.04 22.19-19.81 24.97-2.78 2.74-3.23 4.17-5.76 5.97-2.58 1.88-3.72 3.02-3.72 3.02M2044.81 1136.07s10.14-1.35 15.9-1.35c5.81 0 11.13.65 13.66.2 2.49-.45 5.76-.2 8.3-3.23 2.53-3.02 3.91-8.3 5.05-11.32 1.16-3.02 19.62-29.05 22.65-33.23 2.98-4.12 16.14-21.69 21.94-29.34 5.77-7.6 21.46-27.66 26.04-33.71 4.62-5.97 13.9-15.41 16.18-18.88 2.34-3.48 8.29-12.015 9.2-13.855.98-1.835-1.36-4.371-2.74-6.21-1.39-1.883-4.12-5.11-6.95-7.848-2.78-2.777-6.9-5.801-8.05-6.25-1.15-.453.45 3.226.7 5.312.19 2.086-1.11 4.696-4.62 7.352-4.82 3.723-11.78 6.5-17.09 8.539-5.31 2.086-16.46 5.441-23.98 8.59-7.15 2.98-11.04 5.11-13.86 8.29-3.72 4.17-11.32 18.23-15.69 26.08-4.42 7.84-17.33 32.11-20.56 38.53-3.22 6.5-4.86 10.42-5.31 14.35-.49 3.92-.7 18.19-2.08 21.9-1.39 3.68-5.56 10.18-8.06 12.22-2.57 2.08-3.47 2.33-4.61 3.02-1.19.66-5.11 1.85-5.11 1.85s-.46 5.06-.46 6.21c0 1.18-.45 2.78-.45 2.78M2041.35 1060.13s6.45-10.86 8.74-14.54c2.33-3.68 8.34-11.57 11.33-17.54 3.01-6 12.25-21.25 14.78-26.32 2.5-5.066 5.76-9.679 5.31-14.996-.48-5.312-4.86-11.562-6.21-14.058-1.42-2.571-1.63-5.352-4.9-7.844-3.22-2.574-8.29-3.473-8.29-3.473s3.22 3.227 3.47 6.211c.2 2.985-2.29 7.399-3.92 9.481-1.6 2.043-5.31 5.762-9.44 7.847-4.17 2.043-12.51 6.457-13.41 8.989-.94 2.535-1.18 5.312.9 10.383 2.78 6.74 2.33 13.4 1.19 18.68-1.19 5.35-2.09 6.94-3.03 8.82-.9 1.8-2.98 2.99-2.98 2.99s3.23 11.76 3.92 14.75l2.54 10.62" style="fill:#fff;fill-opacity:1;fill-rule:evenodd;stroke:none" transform="matrix(.13333 0 0 -.13333 0 215.373)"/><path d="M1795.77 814.566s15.45 5.719 22.61 8.989c7.19 3.23 21 9.195 29.99 13.402 9.48 4.375 34.17 17.984 44.79 24.684 10.59 6.707 24.23 16.144 35.31 25.382 11.12 9.235 28.85 25.622 36 32.567 7.16 6.867 24.04 26.769 29.1 34.129 5.07 7.394 13.85 21.25 13.85 21.25l19.38-9.727c8.34-4.129 17.32-8.054 23.33-8.992 5.96-.898 9.89-1.594 15.9-1.145 6.01.493 8.34 1.633 11.57 5.309 3.22 3.684 6.9 10.18 8.29 13.656 1.39 3.43 3.48 8.051 3.48 8.051s7.39-3.433 12.01-5.109l22.35-7.848c6.01-2.043 14.76-3.68 18.23-6.207 3.47-2.543 4.42-4.375 4.17-6.91-.25-2.574-2.78-8.785-5.07-13.363-2.33-4.661-11.07-23.094-14.55-29.344-3.47-6.254-17.53-29.055-24.68-39.231-7.15-10.136-30.04-38.785-38.58-46.875-8.5-8.093-18.92-18.679-25.13-21.906-6.25-3.226-16.15-5.105-22.85-9.234l-35.1-21.914c-9.19-5.801-22.4-13.633-31.84-18.496-9.48-4.825-33.02-16.602-40.17-20.079-7.15-3.476-16.88-7.597-21.45-9.726-4.62-2.031-8.34-3.926-12.02-3.672-3.67.234-6.21 2.773-7.84 5.801-1.6 2.988-12.92 22.402-17.09 30-4.13 7.637-19.98 34.648-23.05 39.472-3.26 5.071-4.62 7.602-11.81 10.383-4.69 1.797-6.25 2.535-8.5 2.535-2.33 0-3.8-.328-7.19.692-2.33.695-3.44 3.476-3.44 3.476M1742.89 799.566s12.68 3.227 18.93 5.274c6.21 2.082 13.15 4.613 17.53 5.558 4.37.934 6.25 1.141 8.54-1.187 2.32-2.289 4.41-6.66 5.56-9.887 1.14-3.23 14.1-25.633 18.43-33.269 4.41-7.559 16.67-28.848 20.35-35.508 3.72-6.699 16.83-27.949 19.62-32.578 2.77-4.571 6-10.821 8.29-14.551 2.29-3.672 6.01-12.207 7.64-15.684 1.6-3.437 3.03-6.211 1.84-9.199-1.14-3.027-8.78-16.64-10.38-20.117-1.63-3.457-8.78-16.133-8.78-16.133s-.7 10.43-2.54 15.488c-1.88 5.059-3.93 8.301-7.6 10.821-3.72 2.539-10.87 4.179-13.65 6.23-2.73 2.071-5.31 3.906-8.74 10.86-3.48 6.914-12.79 31.953-15.95 39.921-3.46 8.75-14.99 37.852-18.91 47.54-3.93 9.726-10.38 26.308-13.41 30.234-2.98 3.926-10.83 9.687-13.36 9.934-2.54.203-6.01.945-6.91.691-.98-.195-3.92-.488-3.92-.488l-2.58 6.05" style="fill:#fff;fill-opacity:1;fill-rule:evenodd;stroke:none" transform="matrix(.13333 0 0 -.13333 0 215.373)"/><path d="M2156.31 958.336s5.71-.449 8.49.937c2.79 1.391 9.53 6.461 13.9 10.625 4.38 4.133 9.43 9.688 11.08 12.465 1.59 2.782 2.28 3.434 2.28 3.434s2.33-.652 2.33-2.289-4.61-16.836-6.05-20.758c-1.35-3.965-6.16-16.879-9.43-23.789-3.24-6.941-13.62-27.012-17.34-33.672-3.67-6.703-20.51-33.266-27.46-42.707-6.9-9.48-27.91-35.309-34.36-42.5-6.46-7.152-32.12-32.074-38.33-38.09-6.26-5.957-51.46-35.762-60.21-41.074-8.83-5.313-37.64-22.148-44.37-25.859-6.67-3.692-26.98-13.379-33.89-16.836-6.94-3.477-24.96-11.973-29.34-12.93-4.37-.938-9.44 0-13.37.449-3.91.508-5.8.508-7.14.508-1.43 0-6.5-.703-6.5-.703l-2.05 3.437s16.85 6.7 25.38 10.821c8.55 4.179 45.25 21.289 55.63 27.265 10.38 5.996 32.08 18.223 43.15 25.625 11.08 7.403 37.64 26.758 47.33 35.313 9.68 8.535 37.39 35.547 42.21 41.555 4.87 6.011 27.01 26.523 32.08 31.835 5.11 5.313 14.26 13.692 20.35 22.641 6.78 10.012 21.37 33.754 24.48 40.824 2.95 6.95 6.41 12.508 5.72 15.45-.66 3.023-.9 5.8-1.8 6.25-.97.449-6.04 1.882-6.04 1.882l2.12 6.211 1.15 3.68M1692.79 790.078s5.35-.234 10.18 1.399c4.86 1.628 15.94 6.211 20.56 6.699 4.61.453 11.52.453 12.66-1.387 1.14-1.887 2.78-6.457 4.86-12.219 2.08-5.8 15.7-40.429 18.93-49.648 3.22-9.238 18.47-45.938 21.25-53.535 2.73-7.657 9.88-24.492 10.83-27.969.94-3.457 4.12-12.656 3.47-15.449-.7-2.735-6.21-11.309-9.49-16.133-3.22-4.863-14.54-20.117-14.54-20.117s-.65 6.051.49 7.851c1.14 1.879 2.29 5.762 1.63 7.852-.69 2.129-3.26 8.535-6.7 11.328-3.47 2.773-9.97 5.059-13.44 8.281-3.39 3.282-5.07 4.18-7.56 14.356-2.58 10.136-9.04 37.343-11.08 45.429-2.13 8.106-10.42 46.387-12.46 54.043-2.09 7.598-3.92 17.735-6.95 21.661-2.98 3.964-9.19 9.472-11.77 9.96-2.54.45-5.52.215-6.45.215-.95 0-2.58-.215-2.58-.215l-1.84 7.598M1644.81 785.703s8.99.899 12.47 1.797c3.43.996 12.92 3.027 18.47 3.027 5.52 0 10.83-1.386 11.77-4.824.9-3.457 2.28-13.398 2.98-17.812.7-4.375 10.62-46.836 11.78-53.047 1.14-6.25 12.7-51.934 13.84-58.633 1.15-6.719 5.07-22.656 4.83-26.328-.21-3.672.24-6.895-.45-8.086-.7-1.152-7.6-10.137-11.08-13.578-3.47-3.469-15.69-18.957-15.69-18.957s-1.14 4.367.49 6.5c1.59 2.047 5.07 5.058 4.62 8.539-.49 3.437-3.72 9.898-6.7 12.672-3.03 2.773-9.69 6.25-12.72 9.472-2.97 3.203-4.61 5.762-5.31 13.379-.69 7.637-3.71 47.774-4.62 60.918-.94 13.164-3.71 49.863-4.61 55.391-.91 5.547-1.84 10.859-5.51 14.531-3.73 3.731-7.41 5.566-9.73 6.27-2.3.683-4.62.937-4.62.937l-.21 7.832M1594.96 785.215s9.19-.195 11.31.488c2.05.664 11.08 1.856 17.49 1.602 6.5-.254 13.46-1.836 13.91-5.313.45-3.476.69-14.746.89-21.66.25-6.953 3.02-42.695 3.23-48.516.24-5.761 3.27-45.683 3.92-55.371.7-9.687 2.08-28.398 1.84-32.07-.21-3.73-.21-8.34-.21-8.34s-10.62-11.074-14.05-14.066c-3.48-3.02-15.94-13.61-15.94-13.61s1.84 5.27 3.68 7.602c1.84 2.301 3.47 6.008 2.09 8.301-1.4 2.316-10.88 12.261-13.86 14.586-2.99 2.246-6.91 7.363-7.4 12.226-.45 4.824 1.84 36.895 3.27 50.313 1.35 13.359 3.19 43.633 4.13 53.984.94 10.41 2.29 22.832.49 27.246-1.88 4.375-5.32 9.688-8.09 11.074-2.78 1.348-6.95 2.09-6.95 2.09l.25 9.434M1545.55 788.242s6.7 0 9.93.215c3.23.234 6.21.938 11.52.684 5.35-.196 9.48 0 13.41-1.348 3.92-1.387 6.94-3.477 6.49-9.961-.48-6.426-2.12-29.316-2.77-35.762-.7-6.465-4.62-53.086-4.62-57.461s-1.43-24.726-1.88-31.386c-.33-5.157-2.29-17.774-2.78-22.637-.45-4.824-2.98-12.91-2.98-13.867 0-.899-.7-2.481-.7-2.481s-8.54-6.949-11.52-8.34c-3.03-1.386-3.03 1.602-4.86 3.442-1.85 1.871-4.38 2.07-8.79 4.199-4.38 2.047-11.08 8.551-14.06 13.121-2.98 4.61-3.97 9.238-2.09 16.836 1.84 7.637 8.3 33.965 10.42 43.399 2.05 9.472 8.3 35.761 10.35 45.039 2.08 9.238 5.8 23.789 5.8 28.847 0 5.078-1.63 9.883-4.37 12.461-2.78 2.539-3.28 2.988-5.11 3.692a43.956 43.956 0 0 1-3.72 1.171l2.33 10.137M1495.44 796.543s6.75-.703 9.94-.703c3.22 0 8.78.703 14.99-.645 6.26-1.425 13.65-2.578 14.55-5.351.94-2.735 2.33-5.762.7-11.778-1.6-5.957-12.47-50.996-14.27-58.632-1.88-7.618-10.17-43.36-11.56-49.375-1.39-6.016-6.01-26.563-7.4-31.133-1.39-4.629-4.13-13.418-4.62-14.356-.45-.898-7.15-4.375-8.79-5.058-1.59-.703-3.92-1.836-3.92-1.836s2.54 3.672 1.64 5.996c-.9 2.324-3.48 4.824-6.95 4.824-3.43 0-7.36-2.773-10.14-1.836-2.77.938-7.14 2.774-10.37 10.41-3.23 7.578-3.48 8.75-2.34 14.512 1.19 5.801 15.49 39.922 18.48 48.027 3.02 8.047 15.94 41.563 19.17 49.61 3.22 8.086 7.64 18.711 7.39 21.894-.24 3.282-2.77 8.594-4.37 10.176-1.64 1.641-3.92 2.578-4.9 2.344-.9-.254-2.05.683-2.05.683l4.82 12.227M1446.28 809.949s4.86-1.597 9.73-1.597c4.86 0 9.93.203 15.45-1.43 5.55-1.594 12.95-5.969 14.1-8.992 1.14-3.028-1.64-8.75-4.87-15.938-3.23-7.148-18.22-47.07-21.7-55.625-3.47-8.496-18.72-46.836-20.76-52.187-2.08-5.274-8.79-21.446-10.87-25.586-2.04-4.16-3.68-8.281-3.68-8.281l-8.54-2.579s2.33 3.477.9 5.547c-1.35 2.09-5.72 6.465-8.3 6.68-2.49.234-5.96-.469-8.99-1.602-3.68-1.386-8.09-1.386-9.68 1.602-1.64 3.008-6.26 11.562-6.71 13.633-.45 2.051-2.08 5.078.25 9.453 2.29 4.375 17.29 32.07 20.52 37.187 3.22 5.059 20.76 34.61 24.68 41.758 3.92 7.149 13.65 23.535 15.49 27.227 1.84 3.711 2.98 6.699 1.63 9.472-1.43 2.786-1.43 4.172-3.02 4.864-1.64.703-4.38 1.152-4.38 1.152l8.75 15.242" style="fill:#fff;fill-opacity:1;fill-rule:evenodd;stroke:none" transform="matrix(.13333 0 0 -.13333 0 215.373)"/><path d="M1624.3 911.012h-3.88c-50.52 0-107.73 14.14-107.73 95.508 0 81.69 56.23 97.79 109.6 98.28 50.96-.45 105.07-19.12 105.07-98.28 0-71.563-50.09-95.508-103.06-95.508" style="fill:#231f20;fill-opacity:1;fill-rule:evenodd;stroke:none" transform="matrix(.13333 0 0 -.13333 0 215.373)"/><path d="M1614.04 794.582c-240.99 0-423.22 148.551-423.22 317.168 0 168.7 182.23 317.21 423.22 317.21 240.99 0 423.22-148.51 423.22-317.21 0-168.617-182.23-317.168-423.22-317.168" style="fill:#fff;fill-opacity:1;fill-rule:evenodd;stroke:none" transform="matrix(.13333 0 0 -.13333 0 215.373)"/><path d="M1613.43 1315.07c58.27-.5 97.55-24.12 97.55-88.65 0-67.43-41.08-89.13-97.55-89.49-53.95.32-97.63 19.61-97.63 89.49 0 62 44.3 88.2 97.63 88.65" style="fill:#231f20;fill-opacity:1;fill-rule:evenodd;stroke:none" transform="matrix(.13333 0 0 -.13333 0 215.373)"/><path d="M1778.28 1127.89c58.04 32.94 69.97 66.25 65.56 105.31-7.93 70.54-104.54 120.93-232.46 119.38-154.03-1.76-247.24-78.95-247.24-99.1 0-20.15 30.53-25.3 30.53-36.17l.04-212.18c.32-13.2-28.69-27.833-28.69-42.462 0-15.16 99.22-88.316 263.31-87.375 144.21.816 227.05 61.262 227.83 133.637.45 39.15-22.36 91.87-78.88 118.06v.9" style="fill:#231f20;fill-opacity:1;fill-rule:evenodd;stroke:none" transform="matrix(.13333 0 0 -.13333 0 215.373)"/><path d="M1614.16 1414.25c243.61 0 409.33-151.99 409.33-303.4 0-151.455-165.72-303.436-409.33-303.436-243.6 0-409.24 151.981-409.24 303.436 0 151.41 165.64 303.4 409.24 303.4" style="fill:#231f20;fill-opacity:1;fill-rule:evenodd;stroke:none" transform="matrix(.13333 0 0 -.13333 0 215.373)"/><path d="M1624.3 911.012h-3.88c-50.52 0-107.73 14.14-107.73 95.508 0 81.69 56.23 97.79 109.6 98.28 50.96-.45 105.07-19.12 105.07-98.28 0-71.563-50.09-95.508-103.06-95.508m153.98 216.878c58.04 32.9 69.97 66.25 65.56 105.31-7.93 70.54-104.58 120.89-232.5 119.42-153.99-1.84-247.2-78.99-247.2-99.14 0-20.15 30.53-25.34 30.53-36.17l.04-212.23c.32-13.15-28.69-27.822-28.69-42.412 0-15.207 99.22-88.316 263.31-87.375 144.21.777 227.05 61.262 227.83 133.637.41 39.11-22.36 91.87-78.88 118.06zm-164.85 187.18c58.27-.5 97.51-24.12 97.51-88.65 0-67.43-41.04-89.13-97.51-89.49-53.95.32-97.63 19.61-97.63 89.49 0 62 44.3 88.2 97.63 88.65" style="fill:#fff;fill-opacity:1;fill-rule:evenodd;stroke:none" transform="matrix(.13333 0 0 -.13333 0 215.373)"/></svg>